<svg width="35" height="35" viewBox="0 0 35 35" fill="none" xmlns="http://www.w3.org/2000/svg">
<path d="M31.0784 33.3089H29.1539V15.409L25.5859 15.1711V33.3089H23.4927V28.3964C23.4927 26.626 21.933 25.1309 20.0844 25.1309H17.2301L16.2344 25.1274C16.1189 25.1207 16.0339 25.0255 16.0339 24.9099V23.8328C17.0398 23.2925 17.8825 22.3376 18.4364 21.1279C18.5689 21.1721 18.7116 21.1993 18.8577 21.1993C19.5849 21.1993 20.1762 20.608 20.1762 19.8808C20.1762 19.2997 19.7956 18.8104 19.2757 18.6371C19.6461 17.8658 19.8432 17.0163 19.8432 16.1565C19.8432 13.0099 17.2878 10.4546 14.1446 10.4546C11.0014 10.4546 8.4427 13.0099 8.4427 16.1565C8.4427 17.0299 8.63979 17.8658 9.01697 18.6439C8.50726 18.8241 8.13686 19.3065 8.13686 19.8808C8.13686 20.608 8.72474 21.1993 9.45191 21.1993C9.59465 21.1993 9.72715 21.1755 9.85288 21.1347C10.4068 22.3411 11.2495 23.2925 12.2519 23.8328V24.9099C12.2519 25.0357 12.1568 25.1309 12.031 25.1309H8.06212C6.26115 25.1309 4.79659 26.5954 4.79659 28.3964V33.3089H2.65847C2.47065 33.3089 2.31866 33.4609 2.31866 33.6487C2.31866 33.8366 2.47065 33.9886 2.65847 33.9886H31.0784C31.2662 33.9886 31.4182 33.8366 31.4182 33.6487C31.4182 33.4609 31.2662 33.3089 31.0784 33.3089ZM20.6516 29.6072C20.8394 29.6072 20.9914 29.7592 20.9914 29.9471V33.3089H20.3118V29.9471C20.3118 29.7592 20.4638 29.6072 20.6516 29.6072ZM15.5752 25.4978L14.0325 26.626L12.6903 25.5182C12.8398 25.3551 12.9315 25.1445 12.9315 24.9099V24.1251C13.3189 24.2507 13.7267 24.3221 14.1446 24.3221C14.5626 24.3221 14.967 24.2507 15.3543 24.1251V24.9099C15.3543 25.1342 15.4393 25.3381 15.5752 25.4978ZM14.0257 27.5264L14.7291 28.1789L14.5014 29.0726H13.55L13.3665 28.1279L14.0189 27.5196L14.0257 27.5264ZM13.5636 29.7556H14.4743L15.0145 33.293H13.0233L13.5636 29.7556ZM16.2956 25.8105H17.6073L15.8505 28.2706L14.5558 27.0916L14.5524 27.0881L16.2956 25.8105ZM9.81551 17.7774C9.81551 17.3153 9.85628 16.8532 9.93783 16.4012C10.6242 16.3298 12.4286 16.0512 13.3461 15.0012C13.9543 15.7624 15.5175 17.1896 18.365 16.5032C18.4364 16.9245 18.4704 17.3493 18.4704 17.7774C18.4704 21.0124 16.5301 23.6425 14.1446 23.6425C11.7592 23.6425 9.81551 21.0124 9.81551 17.7774ZM11.9801 25.8105L13.5024 27.0711L12.765 27.7576C12.7548 27.7644 12.748 27.7712 12.7412 27.7813L12.2044 28.2605C12.1941 28.2571 12.184 28.2503 12.1772 28.2401L10.5903 25.8138L11.9801 25.8105ZM7.29728 29.9471C7.29728 29.7592 7.44927 29.6072 7.63709 29.6072C7.82491 29.6072 7.9769 29.7592 7.9769 29.9471V33.3089H7.29728V29.9471Z" fill="white"/>
<path d="M1.23917 33.309H0.690636C0.502814 33.309 0.35083 33.4609 0.35083 33.6488C0.35083 33.8366 0.502814 33.9886 0.690636 33.9886H1.23917C1.42699 33.9886 1.57898 33.8366 1.57898 33.6488C1.57898 33.4609 1.42699 33.309 1.23917 33.309Z" fill="white"/>
<path d="M33.2891 33.309H32.413C32.2252 33.309 32.0732 33.4609 32.0732 33.6488C32.0732 33.8366 32.2252 33.9886 32.413 33.9886H33.2891C33.4769 33.9886 33.6289 33.8366 33.6289 33.6488C33.6289 33.4609 33.4769 33.309 33.2891 33.309Z" fill="white"/>
<path d="M12.1043 18.0206C11.9165 18.0206 11.7645 18.1726 11.7645 18.3604V19.0364C11.7645 19.2242 11.9165 19.3762 12.1043 19.3762C12.2922 19.3762 12.4441 19.2242 12.4441 19.0364V18.3604C12.4441 18.1726 12.2922 18.0206 12.1043 18.0206Z" fill="white"/>
<path d="M16.1826 19.3762C16.3705 19.3762 16.5224 19.2242 16.5224 19.0364V18.3604C16.5224 18.1726 16.3705 18.0206 16.1826 18.0206C15.9948 18.0206 15.8428 18.1726 15.8428 18.3604V19.0364C15.8428 19.2242 15.9948 19.3762 16.1826 19.3762Z" fill="white"/>
<path d="M14.1531 21.7589C14.5925 21.7573 15.0235 21.5445 15.4344 21.1264C15.5661 20.9927 15.5641 20.7773 15.4304 20.6459C15.2966 20.5142 15.0809 20.5158 14.9499 20.6499C14.6705 20.934 14.4017 21.0783 14.1505 21.0793C14.1495 21.0793 14.1488 21.0793 14.1478 21.0793C13.8949 21.0793 13.6215 20.9343 13.3351 20.6479C13.2024 20.5152 12.9874 20.5152 12.8546 20.6479C12.7219 20.7806 12.7219 20.9957 12.8546 21.1284C13.2727 21.5469 13.7078 21.7589 14.1478 21.7589C14.1495 21.7589 14.1515 21.7589 14.1531 21.7589Z" fill="white"/>
<path d="M29.1538 2.79546C29.1538 2.30267 28.9533 1.8575 28.6305 1.53471C28.3077 1.21191 27.8626 1.01147 27.3699 1.01147C26.3844 1.01147 25.5859 1.80997 25.5859 2.79546V3.39012L29.1538 3.62796V2.79546Z" fill="white"/>
<path d="M25.5859 8.09302V10.4683L29.1538 10.7061V8.33087L25.5859 8.09302Z" fill="white"/>
<path d="M34.6147 6.02045L31.0247 3.00591C30.9619 2.95323 30.8662 2.99787 30.8662 3.07975V4.42246L20.8487 3.75745C20.7647 3.75189 20.7144 3.84912 20.7675 3.9145L21.9871 5.41467L20.7458 6.93832C20.6964 6.99905 20.7361 7.0903 20.8142 7.09545L30.8662 7.7627V9.10873C30.8662 9.1907 30.9619 9.23525 31.0247 9.18257L34.6147 6.16812C34.6606 6.12954 34.6606 6.05894 34.6147 6.02045Z" fill="white"/>
<path d="M34.2224 11.7255L24.1701 11.0583V9.71563C24.1701 9.63366 24.0744 9.58911 24.0117 9.64179L20.4216 12.6562C20.3757 12.6948 20.3757 12.7654 20.4216 12.8039L24.0117 15.8184C24.0744 15.8711 24.1701 15.8265 24.1701 15.7446V14.3986L34.1874 15.0635C34.2715 15.0691 34.3217 14.9718 34.2685 14.9064L33.0492 13.4097L34.2908 11.8826C34.3402 11.8218 34.3005 11.7307 34.2224 11.7255Z" fill="white"/>
</svg>
