<svg width="35" height="35" viewBox="0 0 35 35" fill="none" xmlns="http://www.w3.org/2000/svg">
<path d="M4.81135 24.2813C4.89847 24.3973 4.93592 24.5432 4.91547 24.6868C4.89502 24.8305 4.81834 24.9601 4.70231 25.0472C4.58628 25.1343 4.44039 25.1718 4.29675 25.1513C4.1531 25.1309 4.02347 25.0542 3.93635 24.9382C3.82333 24.7875 3.71288 24.6352 3.605 24.4812C3.52171 24.3625 3.48902 24.2154 3.51413 24.0726C3.53923 23.9297 3.62006 23.8026 3.73885 23.7193C3.85764 23.636 4.00465 23.6033 4.14754 23.6284C4.29043 23.6535 4.41749 23.7344 4.50078 23.8532C4.60196 23.9976 4.70548 24.1403 4.81135 24.2813ZM2.2126 19.0024C2.11756 18.6582 2.0329 18.3054 1.96132 17.954C1.94695 17.8836 1.91887 17.8168 1.87866 17.7572C1.83846 17.6977 1.78693 17.6467 1.727 17.6071C1.66708 17.5675 1.59994 17.5401 1.52942 17.5264C1.4589 17.5127 1.38638 17.5131 1.316 17.5275C1.24562 17.5418 1.17876 17.5699 1.11923 17.6101C1.05971 17.6503 1.00868 17.7018 0.969073 17.7618C0.929463 17.8217 0.902044 17.8888 0.88838 17.9593C0.874717 18.0299 0.875077 18.1024 0.889441 18.1728C0.966331 18.5482 1.05657 18.9252 1.15834 19.2932C1.17667 19.3633 1.20874 19.429 1.25269 19.4866C1.29664 19.5442 1.35159 19.5925 1.41435 19.6287C1.47712 19.6648 1.54644 19.6882 1.6183 19.6973C1.69016 19.7065 1.76313 19.7013 1.83296 19.682C1.90278 19.6627 1.96809 19.6297 2.02507 19.585C2.08206 19.5403 2.12959 19.4847 2.1649 19.4214C2.20022 19.3582 2.22262 19.2886 2.2308 19.2166C2.23898 19.1446 2.23283 19.0719 2.2126 19.0024ZM2.9277 21.0345C2.89955 20.9681 2.85858 20.908 2.80712 20.8575C2.75566 20.8071 2.69474 20.7673 2.62785 20.7405C2.56097 20.7136 2.48944 20.7003 2.41738 20.7012C2.34532 20.7021 2.27415 20.7172 2.20796 20.7457C2.14177 20.7742 2.08186 20.8155 2.03169 20.8673C1.98152 20.919 1.94206 20.9801 1.91559 21.0472C1.88913 21.1142 1.87617 21.1858 1.87746 21.2579C1.87876 21.3299 1.89428 21.401 1.92314 21.467C2.07403 21.8176 2.23957 22.1682 2.415 22.5093C2.4832 22.6348 2.59783 22.7287 2.73437 22.7708C2.8709 22.8129 3.0185 22.8 3.14558 22.7346C3.27266 22.6693 3.36913 22.5568 3.41434 22.4213C3.45956 22.2858 3.44993 22.1379 3.38751 22.0094C3.22356 21.6902 3.06896 21.3624 2.9277 21.0345ZM1.16485 16.3999C1.30957 16.3903 1.44458 16.3236 1.54021 16.2146C1.63583 16.1055 1.68427 15.963 1.67486 15.8183C1.65239 15.4706 1.64063 15.1195 1.64063 14.7389C1.64032 14.6678 1.62587 14.5975 1.59811 14.532C1.57036 14.4666 1.52985 14.4073 1.47895 14.3576C1.42805 14.308 1.36778 14.2689 1.30165 14.2428C1.23552 14.2167 1.16485 14.204 1.09375 14.2054C0.947353 14.2084 0.808003 14.2689 0.705716 14.3736C0.603429 14.4784 0.546388 14.6192 0.546878 14.7656C0.546878 15.1389 0.559183 15.517 0.583464 15.8898C0.592553 16.0283 0.653943 16.1581 0.755194 16.253C0.856445 16.3479 0.989985 16.4008 1.12875 16.4009C1.14073 16.4008 1.15276 16.4008 1.16485 16.3999ZM1.1725 13.0566C1.24366 13.0664 1.31603 13.062 1.3855 13.0438C1.45497 13.0256 1.52016 12.9939 1.57737 12.9504C1.63458 12.907 1.68267 12.8528 1.71891 12.7908C1.75514 12.7288 1.77881 12.6602 1.78856 12.5891C1.8369 12.2355 1.89832 11.8781 1.97121 11.5265C1.99786 11.3857 1.96812 11.24 1.8884 11.1208C1.80868 11.0016 1.68534 10.9185 1.54496 10.8894C1.40457 10.8603 1.25836 10.8875 1.13782 10.9651C1.01727 11.0427 0.932021 11.1645 0.900433 11.3044C0.822448 11.6804 0.756769 12.0628 0.70498 12.4406C0.685289 12.5843 0.723482 12.7299 0.811159 12.8454C0.898836 12.961 1.02881 13.0369 1.1725 13.0566ZM1.85692 9.77649C1.92458 9.80065 1.99634 9.81122 2.06809 9.80761C2.13984 9.80399 2.21018 9.78626 2.27507 9.75543C2.33996 9.72459 2.39813 9.68126 2.44625 9.62791C2.49437 9.57456 2.53149 9.51225 2.5555 9.44453C2.61449 9.27847 2.67625 9.11362 2.74078 8.94999C2.78976 8.816 2.78444 8.66818 2.72596 8.53806C2.66748 8.40793 2.56046 8.30581 2.42775 8.25348C2.29503 8.20115 2.14712 8.20275 2.01557 8.25795C1.88401 8.31314 1.77924 8.41756 1.72359 8.54892C1.65432 8.72392 1.58809 8.90034 1.52491 9.07818C1.47637 9.21481 1.48408 9.36512 1.54634 9.49607C1.6086 9.62702 1.72031 9.72788 1.85692 9.77649ZM32.4445 9.44349C32.4673 9.51268 32.5037 9.57661 32.5515 9.63154C32.5993 9.68648 32.6577 9.7313 32.7231 9.76339C32.7884 9.79547 32.8596 9.81417 32.9323 9.81838C33.005 9.8226 33.0778 9.81224 33.1465 9.78793C33.2152 9.76361 33.2783 9.72582 33.3321 9.67678C33.386 9.62774 33.4295 9.56844 33.4601 9.50235C33.4908 9.43626 33.5079 9.36472 33.5105 9.29193C33.5131 9.21914 33.5011 9.14656 33.4753 9.07845C33.4123 8.90061 33.3462 8.72401 33.2771 8.54864C33.2239 8.41366 33.1193 8.30534 32.9863 8.2475C32.8532 8.18966 32.7026 8.18705 32.5676 8.24023C32.4327 8.29342 32.3243 8.39805 32.2665 8.5311C32.2087 8.66416 32.206 8.81474 32.2592 8.94972C32.3238 9.1132 32.3856 9.27779 32.4445 9.44349ZM33.9063 14.2014C33.7594 14.2053 33.62 14.2666 33.5178 14.372C33.4156 14.4775 33.3587 14.6188 33.3594 14.7656C33.3594 15.1168 33.3482 15.4652 33.3257 15.811C33.3165 15.9557 33.365 16.0982 33.4608 16.2071C33.5565 16.3161 33.6916 16.3825 33.8363 16.3918C33.8486 16.3926 33.8603 16.3929 33.8721 16.3929C34.011 16.3928 34.1446 16.3398 34.2459 16.2448C34.3472 16.1497 34.4085 16.0196 34.4174 15.881C34.4408 15.5122 34.4527 15.1404 34.4531 14.7656V14.7306C34.4528 14.6597 34.4383 14.5896 34.4105 14.5244C34.3826 14.4592 34.3421 14.4002 34.2911 14.3509C34.2402 14.3016 34.1799 14.263 34.1138 14.2373C34.0477 14.2116 33.9771 14.1994 33.9063 14.2014ZM33.6857 17.5203C33.5436 17.4918 33.396 17.5207 33.2751 17.6006C33.1543 17.6805 33.0699 17.805 33.0404 17.9469C32.9678 18.3023 32.8828 18.6553 32.7888 18.9949C32.7696 19.0642 32.7643 19.1365 32.7731 19.2078C32.7818 19.2791 32.8045 19.3479 32.8399 19.4105C32.8753 19.473 32.9227 19.5279 32.9793 19.5721C33.0359 19.6163 33.1007 19.649 33.1699 19.6681C33.2391 19.6873 33.3114 19.6927 33.3827 19.6839C33.454 19.6751 33.5229 19.6524 33.5854 19.617C33.6479 19.5817 33.7029 19.5343 33.7471 19.4777C33.7913 19.4211 33.8239 19.3563 33.8431 19.2871C33.944 18.9231 34.0345 18.5458 34.1117 18.166C34.1408 18.0239 34.1123 17.876 34.0324 17.7549C33.9525 17.6339 33.8278 17.5495 33.6857 17.5203ZM33.0267 11.5188C33.1004 11.8716 33.1618 12.2288 33.2099 12.5808C33.2296 12.7246 33.3055 12.8546 33.4211 12.9424C33.5367 13.0301 33.6824 13.0683 33.8262 13.0486C33.9699 13.0289 34.1 12.9529 34.1877 12.8374C34.2755 12.7218 34.3137 12.5761 34.294 12.4323C34.2422 12.0555 34.176 11.6732 34.098 11.2961C34.0685 11.1541 33.9837 11.0296 33.8624 10.95C33.741 10.8704 33.593 10.8423 33.451 10.8718C33.3089 10.9014 33.1844 10.9861 33.1048 11.1074C33.0252 11.2288 32.9971 11.3768 33.0267 11.5188ZM32.7938 20.742C32.7278 20.7136 32.6569 20.6984 32.585 20.6974C32.5132 20.6964 32.4418 20.7096 32.3751 20.7362C32.3083 20.7628 32.2474 20.8022 32.196 20.8524C32.1445 20.9025 32.1034 20.9623 32.075 21.0283C31.9328 21.3586 31.778 21.6865 31.6156 22.0026C31.5809 22.0666 31.5593 22.1369 31.5521 22.2093C31.5449 22.2818 31.5523 22.3549 31.5737 22.4245C31.5951 22.494 31.6302 22.5586 31.677 22.6144C31.7237 22.6702 31.7811 22.7162 31.8458 22.7495C31.9105 22.7829 31.9812 22.803 32.0538 22.8086C32.1263 22.8143 32.1993 22.8054 32.2684 22.7825C32.3375 22.7596 32.4013 22.7231 32.4561 22.6752C32.511 22.6273 32.5557 22.569 32.5876 22.5036C32.7622 22.165 32.9278 21.8141 33.0798 21.4603C33.137 21.3271 33.139 21.1767 33.0854 21.042C33.0318 20.9073 32.9269 20.7994 32.7938 20.742ZM30.4995 23.8537C30.3981 23.9979 30.2946 24.1404 30.1892 24.2812C30.1441 24.3384 30.1108 24.4041 30.0914 24.4743C30.0721 24.5445 30.0669 24.6179 30.0763 24.6902C30.0856 24.7624 30.1093 24.8321 30.146 24.8951C30.1827 24.958 30.2316 25.013 30.2898 25.0568C30.348 25.1007 30.4144 25.1324 30.4851 25.1502C30.5557 25.168 30.6292 25.1715 30.7012 25.1605C30.7733 25.1494 30.8424 25.1242 30.9045 25.0861C30.9666 25.048 31.0205 24.9979 31.0629 24.9387C31.176 24.7883 31.2865 24.636 31.3946 24.4817C31.4379 24.4231 31.4691 24.3563 31.4862 24.2854C31.5034 24.2145 31.5062 24.1409 31.4945 24.0689C31.4828 23.9969 31.4568 23.928 31.418 23.8662C31.3793 23.8044 31.3285 23.751 31.2688 23.7091C31.2091 23.6672 31.1416 23.6377 31.0703 23.6223C30.999 23.6068 30.9254 23.6058 30.8537 23.6193C30.782 23.6328 30.7137 23.6605 30.6529 23.7007C30.5921 23.741 30.5399 23.793 30.4995 23.8537Z" fill="white"/>
<path d="M32.9962 6.04866L17.6837 0.580452C17.5647 0.538287 17.4348 0.538287 17.3158 0.580452L2.00328 6.04866C1.90477 6.08382 1.81842 6.14649 1.75445 6.22924C1.69049 6.312 1.65159 6.41136 1.64238 6.51554C1.63317 6.61973 1.65403 6.72437 1.70249 6.81706C1.75095 6.90975 1.82497 6.9866 1.91578 7.0385L9.29689 11.2556V13.6321C7.71026 15.1057 6.55038 16.9799 5.93942 19.0573C5.32846 21.1348 5.28904 23.3385 5.82531 25.4364C6.36158 27.5344 7.45368 29.4489 8.9866 30.9783C10.5195 32.5077 12.4365 33.5954 14.5357 34.1268C16.6348 34.6583 18.8385 34.6138 20.9145 33.9981C22.9905 33.3823 24.862 32.2182 26.332 30.6281C27.8019 29.0381 28.8159 27.0811 29.2671 24.9632C29.7182 22.8454 29.5899 20.645 28.8956 18.594H29.5313C29.6763 18.594 29.8154 18.5364 29.918 18.4338C30.0205 18.3312 30.0781 18.1921 30.0781 18.0471V13.6726C30.0771 13.3345 29.9714 13.0049 29.7756 12.7292C29.5797 12.4535 29.3034 12.2451 28.9844 12.1327V9.38087L33.0838 7.03855C33.1746 6.98665 33.2487 6.9098 33.2971 6.81711C33.3456 6.72442 33.3664 6.61978 33.3572 6.5156C33.348 6.41141 33.3091 6.31205 33.2451 6.2293C33.1812 6.14655 33.0947 6.08382 32.9962 6.04866ZM24.6094 12.7052C22.5445 11.1979 20.0534 10.3872 17.497 10.3906C14.9405 10.3939 12.4516 11.2111 10.3906 12.7237V11.0831C12.4511 9.56732 14.9421 8.74978 17.5 8.74978C20.058 8.74978 22.5489 9.56732 24.6094 11.0831V12.7052ZM11.3067 13.4165C13.1803 13.6093 15.4144 14.462 15.7443 17.3787C16.0375 19.9839 14.9416 20.861 13.7814 21.7897C12.8313 22.5503 11.8489 23.3364 11.8489 24.9738C11.8489 26.3578 11.4756 27.3843 10.7696 27.9426C10.4153 28.1864 10.0112 28.3483 9.5866 28.4167C9.16201 28.4851 8.72752 28.4582 8.3146 28.338C6.7686 25.952 6.21617 23.0562 6.77515 20.2686C7.33413 17.4809 8.96026 15.0221 11.3067 13.4165ZM28.4375 22.4218C28.4378 24.8857 27.6015 27.2766 26.0654 29.2031C25.9559 29.1032 25.8674 28.9823 25.8052 28.8478C25.743 28.7132 25.7083 28.5675 25.7031 28.4193C25.7031 27.5971 25.7031 25.4128 24.3894 24.5236C23.7084 24.0619 22.8241 24.0419 21.7634 24.4659C20.6248 24.9204 19.7126 24.8691 19.1262 24.3156C18.8393 24.0032 18.6439 23.6179 18.5612 23.2018C18.4785 22.7858 18.5117 22.355 18.6573 21.9566C18.8336 21.4266 19.7489 21.1046 20.6339 20.7932C22.1303 20.2669 24.1789 19.5464 23.5135 17.1699C23.3694 16.5813 23.3477 15.9694 23.4498 15.372C23.5518 14.7747 23.7754 14.2047 24.1067 13.6972C25.1771 14.5125 26.0889 15.5172 26.7969 16.6615V18.0471C26.7969 18.1921 26.8545 18.3312 26.9571 18.4338C27.0596 18.5364 27.1987 18.594 27.3438 18.594H27.7395C28.2 19.8177 28.4365 21.1143 28.4375 22.4218ZM28.9844 17.5002H27.8906V13.6726C27.8906 13.5276 27.9483 13.3885 28.0508 13.2859C28.1534 13.1834 28.2925 13.1258 28.4375 13.1258C28.5826 13.1258 28.7217 13.1834 28.8242 13.2859C28.9268 13.3885 28.9844 13.5276 28.9844 13.6726V17.5002ZM27.8906 12.1327C27.5717 12.2451 27.2953 12.4535 27.0995 12.7292C26.9036 13.0049 26.7979 13.3345 26.7969 13.6726V14.785C26.4586 14.3716 26.0932 13.9812 25.7031 13.6164V11.2557L27.8906 10.0058V12.1327Z" fill="white"/>
</svg>
