<svg width="35" height="35" viewBox="0 0 35 35" fill="none" xmlns="http://www.w3.org/2000/svg">
<path fill-rule="evenodd" clip-rule="evenodd" d="M13.8066 1.22498C13.6568 1.37446 13.538 1.55207 13.4571 1.74759C13.3761 1.94312 13.3346 2.15271 13.3349 2.36432C13.3349 2.45281 13.2998 2.53766 13.2372 2.60024C13.1747 2.66281 13.0898 2.69797 13.0013 2.69799H12.2641C12.113 2.69865 11.9683 2.75895 11.8615 2.86577C11.7547 2.97258 11.6944 3.11726 11.6937 3.26831V4.97654C11.6944 5.12759 11.7547 5.27226 11.8615 5.37907C11.9683 5.48587 12.113 5.54618 12.2641 5.54686H17.6279C17.7789 5.54618 17.9236 5.48587 18.0304 5.37907C18.1372 5.27226 18.1975 5.12759 18.1982 4.97654V3.26831C18.1976 3.11725 18.1373 2.97256 18.0304 2.86575C17.9236 2.75893 17.7789 2.69863 17.6279 2.69799H16.8909C16.8024 2.69797 16.7176 2.66281 16.655 2.60024C16.5924 2.53767 16.5573 2.45281 16.5572 2.36432C16.5572 0.933221 14.819 0.212645 13.8066 1.22498ZM14.946 1.59412C15.0587 1.5942 15.1689 1.6277 15.2626 1.69038C15.3563 1.75306 15.4293 1.84211 15.4725 1.94628C15.5156 2.05045 15.5268 2.16505 15.5048 2.27562C15.4828 2.38618 15.4285 2.48774 15.3488 2.56746C15.2691 2.64718 15.1675 2.70148 15.057 2.72351C14.9464 2.74553 14.8318 2.73428 14.7276 2.69119C14.6235 2.64809 14.5344 2.57508 14.4717 2.48139C14.409 2.38769 14.3755 2.27752 14.3754 2.16478C14.3755 2.01347 14.4356 1.86839 14.5426 1.76139C14.6496 1.65439 14.7947 1.59423 14.946 1.59412ZM10.912 9.74803C10.9926 9.31736 11.6469 9.44 11.5662 9.87046C11.239 11.6136 9.07619 12.2965 7.8097 11.03C7.4394 10.6598 7.21167 10.1707 7.16662 9.64903C7.12157 9.12735 7.26211 8.60652 7.56346 8.1783C7.86481 7.75009 8.30764 7.44199 8.8139 7.30829C9.32017 7.17459 9.85737 7.22387 10.3309 7.44746C10.3706 7.466 10.4062 7.4922 10.4358 7.52456C10.4653 7.55691 10.4882 7.59478 10.503 7.63599C10.5179 7.6772 10.5245 7.72095 10.5225 7.76471C10.5204 7.80848 10.5097 7.85141 10.491 7.89104C10.4723 7.93067 10.446 7.96621 10.4135 7.99564C10.381 8.02506 10.3431 8.04779 10.3018 8.06251C10.2606 8.07723 10.2168 8.08366 10.173 8.08143C10.1293 8.0792 10.0864 8.06835 10.0468 8.0495C9.80948 7.93802 9.54785 7.88823 9.28615 7.90473C9.02445 7.92123 8.77114 8.00349 8.54968 8.14389C8.32822 8.28429 8.14575 8.4783 8.01919 8.70796C7.89263 8.93761 7.82605 9.19548 7.82562 9.4577C7.82562 10.775 9.3659 11.4923 10.3742 10.6571C10.6541 10.4261 10.8443 10.1044 10.912 9.74789V9.74803ZM10.4823 19.6219C9.50474 18.6443 7.82562 19.34 7.82562 20.7224C7.82562 22.1049 9.5046 22.8006 10.4823 21.823C10.6268 21.6785 10.7415 21.5069 10.8197 21.3181C10.8979 21.1292 10.9382 20.9268 10.9382 20.7224C10.9382 20.518 10.8979 20.3156 10.8197 20.1268C10.7415 19.938 10.6268 19.7664 10.4823 19.6219ZM9.38169 18.4988C9.82145 18.4988 10.2513 18.6292 10.617 18.8736C10.9826 19.1179 11.2676 19.4651 11.4359 19.8714C11.6042 20.2777 11.6482 20.7248 11.5624 21.1561C11.4766 21.5874 11.2649 21.9836 10.9539 22.2945C10.643 22.6055 10.2468 22.8172 9.81546 22.903C9.38416 22.9888 8.93709 22.9448 8.53081 22.7765C8.12453 22.6082 7.77727 22.3232 7.53295 21.9576C7.28864 21.5919 7.15823 21.1621 7.15823 20.7223C7.15825 20.1326 7.39251 19.5671 7.80949 19.1501C8.22646 18.7331 8.792 18.4989 9.38169 18.4988ZM10.4823 25.2541C9.50474 24.2766 7.82562 24.9723 7.82562 26.3547C7.82562 27.7371 9.5046 28.4328 10.4823 27.4553C10.6268 27.3108 10.7415 27.1392 10.8197 26.9503C10.8979 26.7615 10.9382 26.5591 10.9382 26.3547C10.9382 26.1503 10.8979 25.9479 10.8197 25.7591C10.7415 25.5702 10.6268 25.3986 10.4823 25.2541ZM9.38183 24.1308C9.82158 24.1308 10.2515 24.2612 10.6171 24.5056C10.9828 24.7499 11.2677 25.0971 11.436 25.5034C11.6043 25.9097 11.6484 26.3568 11.5626 26.7881C11.4768 27.2194 11.265 27.6156 10.954 27.9265C10.6431 28.2375 10.2469 28.4492 9.8156 28.535C9.38429 28.6208 8.93723 28.5768 8.53095 28.4085C8.12466 28.2402 7.77741 27.9552 7.53309 27.5896C7.28877 27.2239 7.15837 26.7941 7.15837 26.3543C7.15839 25.7646 7.39265 25.1991 7.80962 24.7821C8.2266 24.3651 8.79213 24.1309 9.38183 24.1308ZM13.0482 8.65626C12.609 8.65626 12.609 7.989 13.0482 7.989H21.4725C21.9118 7.989 21.9118 8.65626 21.4725 8.65626H13.0482ZM13.0482 10.9258C12.609 10.9258 12.609 10.2586 13.0482 10.2586H21.4725C21.9118 10.2586 21.9118 10.9258 21.4725 10.9258H13.0482ZM13.0482 14.2883C12.609 14.2883 12.609 13.6211 13.0482 13.6211H21.4725C21.9118 13.6211 21.9118 14.2883 21.4725 14.2883H13.0482ZM13.0482 16.5579C12.609 16.5579 12.609 15.8907 13.0482 15.8907H18.0376C18.4768 15.8907 18.4768 16.5579 18.0376 16.5579H13.0482ZM13.0482 19.9204C12.609 19.9204 12.609 19.2531 13.0482 19.2531H19.4116C19.8508 19.2531 19.8508 19.9204 19.4116 19.9204H13.0482ZM13.0482 22.1899C12.609 22.1899 12.609 21.5227 13.0482 21.5227H19.5936C20.0328 21.5227 20.0328 22.1899 19.5936 22.1899H13.0482ZM13.0482 25.5524C12.609 25.5524 12.609 24.8852 13.0482 24.8852H18.1663C18.6055 24.8852 18.6055 25.5524 18.1663 25.5524H13.0482ZM8.34461 9.44014L9.24894 10.3455C9.3115 10.408 9.39633 10.4431 9.48478 10.4431C9.57322 10.4431 9.65805 10.408 9.72062 10.3455L11.5075 8.55857C11.8181 8.24808 11.3463 7.77634 11.0359 8.08689L9.57754 9.54527C9.55296 9.56973 9.51969 9.58346 9.48501 9.58346C9.45034 9.58346 9.41707 9.56973 9.39249 9.54527L8.81643 8.96914C8.50587 8.65858 8.03412 9.13033 8.34475 9.44082L8.34461 9.44014ZM10.9286 15.3794C11.0092 14.9487 11.6635 15.0714 11.5827 15.5019C11.2556 17.2451 9.0928 17.928 7.82624 16.6614C7.45597 16.2912 7.22826 15.8021 7.18323 15.2805C7.1382 14.7588 7.27874 14.238 7.58009 13.8097C7.88144 13.3815 8.32426 13.0734 8.83052 12.9397C9.33677 12.806 9.87398 12.8553 10.3475 13.0788C10.387 13.0975 10.4225 13.1237 10.4519 13.1561C10.4812 13.1885 10.504 13.2263 10.5187 13.2674C10.5335 13.3086 10.54 13.3522 10.5379 13.3959C10.5358 13.4396 10.5251 13.4824 10.5064 13.5219C10.4878 13.5614 10.4615 13.5969 10.4292 13.6263C10.3968 13.6557 10.359 13.6784 10.3178 13.6932C10.2767 13.7079 10.233 13.7144 10.1894 13.7123C10.1457 13.7102 10.1029 13.6995 10.0634 13.6809C9.82603 13.5694 9.5644 13.5196 9.30271 13.5361C9.04102 13.5526 8.78772 13.6349 8.56627 13.7753C8.34482 13.9157 8.16236 14.1097 8.0358 14.3394C7.90924 14.569 7.84267 14.8269 7.84224 15.0891C7.84224 16.4063 9.38237 17.1237 10.3908 16.2884C10.6707 16.0574 10.8609 15.7357 10.9286 15.3792V15.3794ZM8.36088 15.0732L9.26534 15.9778C9.29631 16.0087 9.33308 16.0333 9.37355 16.0501C9.41401 16.0668 9.45738 16.0754 9.50118 16.0754C9.54498 16.0754 9.58835 16.0668 9.62882 16.0501C9.66928 16.0333 9.70605 16.0087 9.73702 15.9778L11.5238 14.191C11.8343 13.8805 11.3625 13.4088 11.0521 13.7194L9.59374 15.1777C9.56916 15.2021 9.53589 15.2159 9.50122 15.2159C9.46654 15.2159 9.43327 15.2021 9.40869 15.1777L8.83263 14.6015C8.52214 14.291 8.05032 14.7627 8.36095 15.0732H8.36088ZM26.3244 15.4373V5.39729C26.3227 4.89016 26.1205 4.40428 25.7619 4.04568C25.4033 3.68708 24.9174 3.48489 24.4103 3.48323H18.9962C18.9615 3.48329 18.9283 3.49709 18.9038 3.52161C18.8792 3.54614 18.8654 3.57939 18.8654 3.61407V4.97654C18.8654 5.0449 18.8233 5.23631 18.9901 5.23631H22.3712C22.9736 5.23788 23.5509 5.47789 23.9769 5.90387C24.4029 6.32986 24.6429 6.90717 24.6445 7.5096V14.9358C24.6443 14.9628 24.6526 14.9893 24.6682 15.0114C24.6839 15.0335 24.7061 15.0501 24.7317 15.0588L26.1499 15.5603C26.1696 15.5673 26.1907 15.5695 26.2115 15.5667C26.2322 15.5639 26.252 15.5561 26.2691 15.544C26.2862 15.532 26.3001 15.516 26.3098 15.4974C26.3194 15.4788 26.3244 15.4582 26.3244 15.4372V15.4373ZM27.4113 18.6723L28.1706 18.4038C28.1895 18.3971 28.2097 18.3948 28.2296 18.3971C28.2495 18.3994 28.2686 18.4063 28.2854 18.4172C28.3023 18.428 28.3164 18.4427 28.3266 18.4599C28.3369 18.4771 28.343 18.4965 28.3446 18.5165L28.3762 18.9009C28.3784 18.9246 28.374 18.9484 28.3635 18.9697C28.353 18.991 28.3368 19.009 28.3166 19.0216C28.1961 19.0991 28.0969 19.2056 28.0283 19.3314C27.9597 19.4572 27.9237 19.5982 27.9238 19.7415V21.1039C27.9237 21.1477 27.9324 21.1911 27.9491 21.2316C27.9659 21.272 27.9905 21.3088 28.0214 21.3398C28.0524 21.3708 28.0892 21.3954 28.1297 21.4121C28.1702 21.4289 28.2135 21.4375 28.2574 21.4375H29.3017C29.3456 21.4375 29.3889 21.4289 29.4294 21.4121C29.4699 21.3954 29.5067 21.3708 29.5377 21.3398C29.5686 21.3088 29.5932 21.272 29.61 21.2316C29.6267 21.1911 29.6353 21.1477 29.6353 21.1039V19.7415C29.6354 19.5744 29.5865 19.4109 29.4947 19.2712C29.403 19.1315 29.2724 19.0217 29.119 18.9554C29.0971 18.9462 29.0781 18.9311 29.0643 18.9118C29.0504 18.8925 29.0422 18.8697 29.0405 18.846L28.989 18.2175C28.9864 18.1887 28.9935 18.1598 29.0092 18.1355C29.025 18.1112 29.0484 18.0929 29.0758 18.0835L29.8323 17.816C29.8578 17.807 29.8799 17.7903 29.8955 17.7682C29.9111 17.7461 29.9195 17.7197 29.9195 17.6927C29.9195 17.6656 29.9111 17.6392 29.8955 17.6171C29.8799 17.595 29.8578 17.5783 29.8323 17.5693L24.2812 15.6103L24.1749 15.6129L18.6421 17.5694C18.6166 17.5784 18.5945 17.5951 18.5789 17.6172C18.5633 17.6393 18.5549 17.6657 18.5549 17.6927C18.5549 17.7198 18.5633 17.7462 18.5789 17.7683C18.5945 17.7903 18.6166 17.8071 18.6421 17.8161L24.1665 19.7695H24.3081L27.4116 18.6721L27.4113 18.6723ZM27.0342 19.5122C27.0539 19.5051 27.075 19.5029 27.0958 19.5057C27.1165 19.5086 27.1363 19.5163 27.1534 19.5284C27.1705 19.5405 27.1845 19.5565 27.1941 19.5751C27.2037 19.5937 27.2087 19.6143 27.2087 19.6353V21.3746C27.2087 22.0571 26.9724 22.7186 26.54 23.2466C26.5292 23.2601 26.5157 23.2712 26.5004 23.2792C26.3678 23.3503 26.3658 23.4433 26.3212 23.4872C25.9048 23.8995 25.3757 24.1793 24.8005 24.2913C24.2253 24.4033 23.6299 24.3425 23.0892 24.1166C22.5485 23.8907 22.0868 23.5098 21.7623 23.0218C21.4378 22.5339 21.265 21.9608 21.2657 21.3749V19.6355C21.2657 19.6145 21.2707 19.5939 21.2803 19.5753C21.2899 19.5567 21.3039 19.5407 21.321 19.5286C21.3381 19.5166 21.3578 19.5088 21.3786 19.506C21.3993 19.5032 21.4204 19.5054 21.4401 19.5124L23.9661 20.4053C24.1412 20.4696 24.3334 20.4696 24.5085 20.4053L27.0343 19.5121L27.0342 19.5122ZM16.2444 30.5762C16.279 30.5763 16.3123 30.5901 16.3368 30.6146C16.3613 30.6392 16.3751 30.6724 16.3752 30.7071V32.1981C16.3751 32.2327 16.3613 32.266 16.3368 32.2905C16.3123 32.315 16.279 32.3288 16.2444 32.3289H5.48145C4.97431 32.3273 4.48841 32.1251 4.12981 31.7665C3.77121 31.4079 3.56902 30.922 3.56738 30.4148V5.39729C3.56902 4.89016 3.77121 4.40426 4.12981 4.04566C4.48841 3.68706 4.97431 3.48487 5.48145 3.48323H10.8955C10.9302 3.48329 10.9634 3.49709 10.988 3.52161C11.0125 3.54614 11.0263 3.57939 11.0263 3.61407V4.97654C11.0263 5.0449 11.0685 5.23631 10.9016 5.23631H7.52074C6.9183 5.23786 6.34099 5.47786 5.915 5.90385C5.48901 6.32984 5.249 6.90716 5.24745 7.5096V28.3032C5.249 28.9056 5.48901 29.4829 5.915 29.9089C6.34099 30.3349 6.9183 30.5749 7.52074 30.5764L16.2444 30.5762ZM23.9772 25.6138L23.9787 25.1362C23.9818 25.1019 23.9713 25.0678 23.9494 25.0412C23.9275 25.0146 23.8961 24.9977 23.8618 24.9941C22.9676 24.8987 22.14 24.4766 21.5378 23.8087C20.9356 23.1408 20.6012 22.2741 20.5986 21.3748V19.307C20.5989 19.2799 20.5906 19.2533 20.575 19.2312C20.5593 19.209 20.5371 19.1924 20.5114 19.1836L17.611 18.1582C17.5149 18.1241 17.4317 18.0611 17.3729 17.9777C17.314 17.8944 17.2824 17.7949 17.2824 17.693C17.2824 17.591 17.314 17.4915 17.3729 17.4082C17.4317 17.3249 17.5149 17.2618 17.611 17.2277L23.89 15.0073C23.9156 14.9986 23.9378 14.982 23.9535 14.9599C23.9692 14.9378 23.9775 14.9113 23.9772 14.8843V7.50939C23.9757 7.08391 23.806 6.67629 23.5052 6.37543C23.2043 6.07456 22.7967 5.90487 22.3712 5.90336H18.494C18.4637 5.90295 18.4342 5.91348 18.411 5.93303C18.1904 6.11465 17.9136 6.21392 17.6279 6.21385H12.2641C11.9784 6.21395 11.7015 6.11473 11.4809 5.93316C11.4577 5.91362 11.4283 5.90309 11.3979 5.90349H7.52074C7.09525 5.90497 6.68761 6.07465 6.38674 6.37552C6.08587 6.67639 5.91618 7.08404 5.91471 7.50953V28.3031C5.91618 28.7286 6.08587 29.1362 6.38674 29.4371C6.68761 29.738 7.09525 29.9076 7.52074 29.9091H16.3077C16.3389 29.9093 16.369 29.8983 16.3927 29.8782C16.4165 29.858 16.4321 29.83 16.4369 29.7992C16.6229 28.6694 17.2033 27.6421 18.0751 26.8998C18.9469 26.1575 20.0536 25.7482 21.1986 25.7448H23.8464C23.8811 25.7447 23.9143 25.7309 23.9389 25.7064C23.9634 25.6819 23.9772 25.6486 23.9772 25.614V25.6138ZM26.3244 25.6138V24.5937C26.3244 24.5704 26.3182 24.5476 26.3065 24.5275C26.2948 24.5074 26.2779 24.4908 26.2576 24.4795C26.2373 24.4681 26.2143 24.4623 26.1911 24.4628C26.1678 24.4632 26.1451 24.4699 26.1253 24.4821C25.7062 24.7386 25.2392 24.9069 24.7528 24.9768C24.6229 24.9954 24.6445 25.1203 24.6445 25.1674V25.6138C24.6445 25.6485 24.6583 25.6818 24.6829 25.7063C24.7074 25.7308 24.7406 25.7446 24.7753 25.7447H26.1935C26.2282 25.7446 26.2614 25.7308 26.286 25.7063C26.3105 25.6818 26.3243 25.6485 26.3244 25.6138ZM20.8761 26.6156C20.8644 26.5963 20.8579 26.5742 20.8572 26.5516C20.8566 26.529 20.8618 26.5066 20.8724 26.4866C20.883 26.4666 20.8987 26.4497 20.9178 26.4376C20.9369 26.4255 20.9588 26.4185 20.9814 26.4174L21.9407 26.4117C21.958 26.4115 21.975 26.4147 21.9909 26.4213C22.0068 26.4279 22.0212 26.4376 22.0332 26.45L23.6732 28.0899C23.6977 28.1145 23.7114 28.1478 23.7114 28.1825C23.7114 28.2172 23.6977 28.2504 23.6732 28.275L22.6673 29.281C22.6532 29.2951 22.6362 29.3059 22.6174 29.3124C22.5986 29.3189 22.5785 29.321 22.5588 29.3186C22.539 29.3162 22.5201 29.3092 22.5034 29.2984C22.4867 29.2875 22.4728 29.273 22.4626 29.2559L20.876 26.6156H20.8761ZM28.3509 26.6553C28.3659 26.63 28.389 26.6106 28.4164 26.6001C28.4438 26.5897 28.474 26.5888 28.5019 26.5977C29.349 26.862 30.0898 27.3895 30.6167 28.1035C31.1437 28.8174 31.4294 29.6807 31.4324 30.5681V33.2731C31.4317 33.5315 31.3287 33.7791 31.146 33.9618C30.9633 34.1445 30.7157 34.2474 30.4573 34.248H18.0173C17.759 34.2473 17.5114 34.1444 17.3287 33.9617C17.146 33.779 17.0431 33.5314 17.0424 33.2731V30.5681C17.0454 29.6807 17.3311 28.8174 17.858 28.1035C18.385 27.3895 19.1257 26.8621 19.9728 26.5977C20.0008 26.5888 20.031 26.5896 20.0584 26.6C20.0858 26.6105 20.1089 26.63 20.1238 26.6553L22.1836 30.0828C22.3112 30.2973 22.5619 30.3299 22.7194 30.1723L24.1449 28.7469C24.1694 28.7225 24.2027 28.7087 24.2373 28.7087C24.272 28.7087 24.3053 28.7225 24.3298 28.7469L25.7552 30.1723C25.9128 30.3299 26.1635 30.2973 26.2911 30.0828L28.3508 26.6553H28.3509ZM26.4417 26.4502L24.8017 28.0902C24.7773 28.1148 24.7635 28.1481 24.7635 28.1827C24.7635 28.2174 24.7773 28.2507 24.8017 28.2753L25.8075 29.281C25.8215 29.2952 25.8386 29.3059 25.8574 29.3124C25.8762 29.3189 25.8962 29.3211 25.916 29.3187C25.9357 29.3162 25.9547 29.3093 25.9713 29.2985C25.988 29.2876 26.002 29.273 26.0122 29.2559L27.5981 26.6169C27.6099 26.5975 27.6164 26.5754 27.617 26.5527C27.6176 26.53 27.6123 26.5076 27.6016 26.4876C27.5909 26.4676 27.5752 26.4507 27.556 26.4386C27.5369 26.4265 27.5149 26.4196 27.4922 26.4186C27.1896 26.4041 26.8215 26.4109 26.5339 26.4118C26.5167 26.4116 26.4997 26.4149 26.4839 26.4215C26.468 26.4281 26.4537 26.4379 26.4417 26.4502ZM23.1618 26.6353C23.1435 26.617 23.131 26.5937 23.1259 26.5683C23.1208 26.543 23.1234 26.5166 23.1333 26.4927C23.1432 26.4688 23.16 26.4484 23.1815 26.434C23.2031 26.4196 23.2284 26.412 23.2543 26.412H25.2206C25.2465 26.412 25.2718 26.4196 25.2933 26.434C25.3149 26.4484 25.3316 26.4688 25.3416 26.4927C25.3515 26.5166 25.354 26.543 25.349 26.5683C25.3439 26.5937 25.3314 26.617 25.3131 26.6353L24.33 27.6185C24.3054 27.643 24.2722 27.6567 24.2375 27.6567C24.2028 27.6567 24.1695 27.643 24.145 27.6185L23.1618 26.6353Z" fill="white"/>
</svg>
