<svg width="50" height="50" viewBox="0 0 50 50" fill="none" xmlns="http://www.w3.org/2000/svg">
<g clip-path="url(#clip0_2313_2191)">
<path d="M16.6725 25.5233C17.2881 25.3958 17.9313 25.1165 18.5381 24.6785C20.2828 23.4164 21.0571 21.3442 20.2658 20.0477C19.4055 18.6374 17.0522 18.7322 15.2437 20.3372C13.5143 21.8304 13.1454 23.3906 13.1454 25.0303C13.1454 26.1889 13.516 28.2577 15.7797 30.0543C16.8485 29.2284 18.1227 28.549 19.5691 28.0578L19.5883 28.0508C18.4769 27.5876 17.0282 26.6736 16.6725 25.5233ZM16.3934 21.5355C16.3934 21.051 16.7794 20.6615 17.2555 20.6615C17.7311 20.6615 18.1175 21.0528 18.1175 21.5373C18.1175 22.0218 17.7311 22.4113 17.2555 22.4113C16.7795 22.4113 16.3934 22.0199 16.3934 21.5355Z" fill="#49BBBD"/>
<path d="M36.8858 25.0319C36.8806 23.3905 36.5134 21.8303 34.7825 20.3372C32.9754 18.7338 30.6205 18.6355 29.76 20.0476C28.9704 21.3441 29.7428 23.4165 31.4875 24.6784C32.0944 25.1164 32.7376 25.3956 33.353 25.5232C33.1392 26.2145 32.4893 26.918 31.498 27.5111C30.1349 28.3246 29.3986 28.4253 20.6775 31.3213C17.4501 32.4178 15.5296 34.5969 15.5296 37.1504C15.5296 38.9693 16.4587 40.3727 17.75 41.4004C18.5621 40.5641 19.576 39.8384 20.7604 39.2572C19.3967 38.5677 18.9759 38.0452 18.9759 37.1504C18.9759 35.6735 21.928 34.8291 23.2898 34.3798V38.1177L26.7379 36.5797V34.3815C28.1019 34.8332 31.0464 35.6765 31.0464 37.1504C31.0464 39.6024 24.0253 41.0483 21.038 43.1088C19.5882 44.114 18.8086 45.3916 18.8086 46.8932C18.8086 47.7552 18.9088 48.8242 20.4224 49.8862C20.8516 50.2291 21.4479 49.7282 21.1692 49.2465C20.169 47.2448 21.231 46.2449 23.2931 45.3793V48.2723C23.2931 49.224 24.0655 49.9964 25.0172 49.9964C25.9689 49.9964 26.7413 49.224 26.7413 48.2723V45.3811C28.7221 46.2121 29.9689 47.3862 28.8602 49.2465C28.5854 49.719 29.1705 50.2333 29.605 49.8862C31.0704 48.7758 31.186 47.8241 31.186 46.9156C31.186 45.5175 30.4206 44.1606 28.9688 43.1209C31.9033 42.0606 34.4996 40.2762 34.4996 37.1538C34.4996 34.997 33.1292 33.1074 30.7602 31.9109C31.8669 31.5127 32.4237 31.2454 33.1634 30.8042C36.403 28.8679 36.8858 26.356 36.8858 25.0319ZM32.7722 22.4112C32.2962 22.4112 31.9102 22.0199 31.9102 21.5354C31.9102 21.0509 32.2962 20.6596 32.7722 20.6596C33.2479 20.6596 33.6343 21.0509 33.6343 21.5354C33.6343 22.0199 33.248 22.4112 32.7722 22.4112Z" fill="#49BBBD"/>
<path d="M49.1371 3.4515H37.3297C35.0134 3.4515 33.2752 4.47539 31.7799 5.97082C30.1554 7.59534 29.3107 11.2065 26.724 11.2065V6.41811C27.7505 5.82082 28.4481 4.7214 28.4481 3.44816C28.4481 1.54381 26.9044 0 25 0C23.0955 0 21.5518 1.54381 21.5518 3.44816C21.5518 4.72129 22.2494 5.82072 23.2759 6.41811V26.9654C24.34 26.626 25.5078 26.252 26.724 25.8613V17.2253C27.4721 16.85 28.0756 16.2432 28.4457 15.4923C29.0454 16.5172 30.1855 17.2442 31.4562 17.2442C32.7451 17.2442 33.8555 16.5286 34.4471 15.4813C36.4668 17.5012 40.221 17.5401 42.2408 15.5203L39.3109 12.5904L40.6549 13.1472C43.2941 14.2404 46.3196 12.9871 47.413 10.3479L43.2508 8.62386C47.283 8.62375 49.1371 6.09355 49.1371 3.4515Z" fill="#49BBBD"/>
<path d="M18.22 5.97073C16.7247 4.47531 14.9865 3.45142 12.6702 3.45142H0.862793C0.862793 6.09336 2.71694 8.62366 6.74913 8.62366L2.58688 10.3477C3.68016 12.9869 6.70581 14.2401 9.34495 13.147L10.689 12.5902L7.75912 15.5201C9.77888 17.54 13.5331 17.5011 15.5528 15.4811C16.1444 16.5285 17.2548 17.2441 18.5437 17.2441C18.5564 17.2441 18.5691 17.244 18.5818 17.2439C20.2665 17.2247 21.5541 15.703 21.5541 14.0183V10.5497C20.1952 9.43474 19.4169 7.16768 18.22 5.97073Z" fill="#49BBBD"/>
</g>
<defs>
<clipPath id="clip0_2313_2191">
<rect width="50" height="50" fill="white"/>
</clipPath>
</defs>
</svg>
