<svg width="30" height="30" viewBox="0 0 30 30" fill="none" xmlns="http://www.w3.org/2000/svg">
<g clip-path="url(#clip0_2338_665)">
<path d="M14.6313 29.0026C22.3153 29.0026 28.5443 22.7735 28.5443 15.0896C28.5443 7.4056 22.3153 1.17651 14.6313 1.17651C6.94734 1.17651 0.718262 7.4056 0.718262 15.0896C0.718262 22.7735 6.94734 29.0026 14.6313 29.0026Z" fill="#FBE2CB"/>
<path d="M2.77617 2.89633L2.43871 2.9893C2.22864 3.0475 2.0647 3.21143 2.0065 3.42151L1.91353 3.75897L1.82021 3.42151C1.76201 3.21143 1.59807 3.0475 1.388 2.98965L1.05054 2.89633L1.388 2.803C1.59807 2.74517 1.76201 2.58122 1.82021 2.37115L1.91353 2.03369L2.0065 2.37115C2.0647 2.58123 2.22864 2.74517 2.43871 2.80336L2.77617 2.89633Z" fill="#E4C95C"/>
<path d="M27.9227 2.89633L27.5852 2.9893C27.3751 3.0475 27.2112 3.21143 27.153 3.42151L27.06 3.75897L26.9667 3.42151C26.9085 3.21143 26.7446 3.0475 26.5345 2.98966L26.197 2.89633L26.5345 2.803C26.7446 2.74517 26.9085 2.58122 26.9667 2.37115L27.06 2.03369L27.153 2.37115C27.2112 2.58123 27.3751 2.74517 27.5852 2.80336L27.9227 2.89633Z" fill="#E4C95C"/>
<path d="M27.9227 26.7695L27.5852 26.8625C27.3751 26.9207 27.2112 27.0846 27.153 27.2947L27.06 27.6321L26.9667 27.2947C26.9085 27.0846 26.7446 26.9207 26.5345 26.8628L26.197 26.7695L26.5345 26.6762C26.7446 26.6183 26.9085 26.4544 26.9667 26.2443L27.06 25.9069L27.153 26.2443C27.2112 26.4544 27.3751 26.6183 27.5852 26.6765L27.9227 26.7695Z" fill="#E4C95C"/>
<path d="M3.09404 27.265L2.75658 27.358C2.54651 27.4161 2.38257 27.5801 2.32437 27.7902L2.2314 28.1276L2.13808 27.7902C2.07988 27.5801 1.91594 27.4162 1.70587 27.3583L1.36841 27.265L1.70587 27.1717C1.91594 27.1138 2.07988 26.9499 2.13808 26.7398L2.2314 26.4023L2.32437 26.7398C2.38257 26.9499 2.54651 27.1138 2.75658 27.172L3.09404 27.265Z" fill="#E4C95C"/>
<path d="M3.99961 23.4084L3.78083 23.4687C3.64464 23.5064 3.53835 23.6127 3.50062 23.7489L3.44035 23.9676L3.37985 23.7489C3.34212 23.6127 3.23583 23.5064 3.09964 23.4689L2.88086 23.4084L3.09964 23.3479C3.23583 23.3104 3.34212 23.2041 3.37985 23.0679L3.44035 22.8491L3.50062 23.0679C3.53835 23.2041 3.64464 23.3104 3.78083 23.3481L3.99961 23.4084Z" fill="#E4C95C"/>
<path d="M26.1692 20.9274L26.0418 20.9625C25.9625 20.9845 25.9005 21.0464 25.8786 21.1258L25.8435 21.2532L25.8082 21.1258C25.7862 21.0464 25.7243 20.9845 25.645 20.9627L25.5176 20.9274L25.645 20.8922C25.7243 20.8703 25.7862 20.8084 25.8082 20.7291L25.8435 20.6017L25.8786 20.7291C25.9005 20.8084 25.9625 20.8703 26.0418 20.8923L26.1692 20.9274Z" fill="#E4C95C"/>
<path d="M19.0746 15.3977V24.3451C19.0746 24.6668 18.8137 24.9248 18.4949 24.9248H15.95C15.6283 24.9248 15.3704 24.6668 15.3704 24.3451V15.3977H19.0746Z" fill="#C3CCE9"/>
<path d="M27.9282 8.79771H17.2234V1.82068H29.3774L26.6239 5.3092L27.9282 8.79771Z" fill="#E4C95C"/>
<path d="M4.88159 17.2996H9.85029V28.9739H4.88159V17.2996Z" fill="#C3CCE9"/>
<path d="M21.2256 23.389H20.0935C20.7437 23.389 21.2721 23.9173 21.2721 24.5734C21.2721 24.8985 21.1385 25.1946 20.9295 25.4094C20.7147 25.6242 20.4186 25.7577 20.0935 25.7577H19.5362C20.1864 25.7577 20.7205 26.2861 20.7205 26.9363C20.7205 27.2614 20.587 27.5633 20.3722 27.7723C20.1574 27.9871 19.8613 28.1207 19.5362 28.1207H9.85034V18.6573H11.6631C12.1261 18.6573 12.5226 18.3258 12.6047 17.8701L12.6276 17.7432C12.7339 17.1532 13.2474 16.724 13.8468 16.724H15.2017L15.2439 18.6573H20.1563C20.7077 18.6573 21.224 19.0102 21.3572 19.5453C21.4662 19.9835 21.3243 20.399 21.0456 20.6777C20.8367 20.8925 20.5347 21.026 20.2096 21.026H21.2256C21.8817 21.026 22.41 21.5544 22.41 22.2046C22.41 22.5355 22.2765 22.8258 22.0617 23.0406C21.8468 23.2554 21.5566 23.389 21.2256 23.389Z" fill="#E8F3FF"/>
<path d="M29.7683 1.63085C29.6956 1.48097 29.5436 1.38586 29.3772 1.38586H17.6572V0.99948C17.6572 0.759162 17.4627 0.564697 17.2224 0.564697C16.9821 0.564697 16.7876 0.759162 16.7876 0.99948V14.963H15.3703C15.13 14.963 14.9355 15.1575 14.9355 15.3978V16.289H13.8469C13.0359 16.289 12.3434 16.8682 12.1999 17.666L12.177 17.793C12.132 18.0418 11.9158 18.2226 11.6632 18.2226H10.2854V17.2996C10.2854 17.0593 10.0909 16.8648 9.85062 16.8648H4.88161C4.6413 16.8648 4.44683 17.0593 4.44683 17.2996V28.5657H0.622527C0.382209 28.5657 0.187744 28.7602 0.187744 29.0005C0.187744 29.2408 0.382209 29.4353 0.622527 29.4353H28.6397C28.88 29.4353 29.0745 29.2408 29.0745 29.0005C29.0745 28.7602 28.88 28.5657 28.6397 28.5657H10.2854V28.5555H19.5364C20.4324 28.5555 21.1554 27.8247 21.1554 26.9361C21.1554 26.588 21.0441 26.2648 20.8548 26.0012C21.3927 25.7101 21.7069 25.1567 21.7069 24.5733C21.7069 24.293 21.6356 24.0289 21.5099 23.7988C22.2539 23.6668 22.8448 23.0099 22.8448 22.2045C22.8448 21.4495 22.3217 20.8144 21.6178 20.6394C21.822 20.2815 21.8827 19.8565 21.7791 19.4404C21.6008 18.7232 20.9337 18.2226 20.1563 18.2226H19.5092V15.3978C19.5092 15.1575 19.3148 14.963 19.0745 14.963H17.6572V9.23233H27.9281C28.0707 9.23233 28.204 9.16227 28.2851 9.04551C28.3667 8.92832 28.3853 8.77886 28.3352 8.64511L27.1167 5.38637L29.7186 2.08983C29.8218 1.95906 29.8413 1.78115 29.7683 1.63085ZM5.3164 17.7344H9.41584V28.5394H5.3164V17.7344ZM20.935 19.6501C21.0596 20.151 20.6781 20.5914 20.2098 20.5914H16.8352C16.5948 20.5914 16.4004 20.7859 16.4004 21.0262C16.4004 21.2665 16.5948 21.461 16.8352 21.461H21.2259C21.639 21.461 21.9753 21.7943 21.9753 22.2045C21.9753 22.6191 21.6335 22.9543 21.2259 22.9543C20.7769 22.9528 22.8522 22.9597 16.8352 22.9399C16.5948 22.9399 16.4004 23.1343 16.4004 23.3747C16.4004 23.615 16.5948 23.8094 16.8352 23.8094C16.9097 23.8098 20.0192 23.8239 20.0935 23.8239C20.5036 23.8239 20.8374 24.1601 20.8374 24.5733C20.8374 24.7711 20.7592 24.9605 20.6221 25.1019C20.4794 25.2446 20.2918 25.3231 20.0935 25.3231C19.1232 25.326 16.2884 25.3343 16.2123 25.3346C15.972 25.3346 15.7775 25.529 15.7775 25.7694C15.7775 26.0097 15.972 26.2041 16.2123 26.2041H19.5869C19.5945 26.2041 19.6007 26.2002 19.6081 26.1999C19.9872 26.2363 20.2858 26.5504 20.2858 26.9361C20.2858 27.358 19.9372 27.686 19.5364 27.686H10.2854V19.0922H11.6632C12.337 19.0922 12.9128 18.6107 13.0329 17.9475L13.0559 17.8201C13.1247 17.4367 13.4575 17.1586 13.8469 17.1586H14.7763L14.809 18.6668C14.8141 18.9033 15.0073 19.0922 15.2438 19.0922H20.1563C20.5274 19.0922 20.8548 19.327 20.935 19.6501ZM18.6397 18.2226H15.8051V15.8326H18.6397V18.2226ZM26.2823 5.0399C26.1881 5.15921 26.163 5.31886 26.2165 5.46152L27.3014 8.36276H17.658V2.25542H28.48L26.2823 5.0399Z" fill="#2D346A"/>
</g>
<defs>
<clipPath id="clip0_2338_665">
<rect width="30" height="30" fill="white"/>
</clipPath>
</defs>
</svg>
