<svg width="30" height="27" viewBox="0 0 30 27" fill="none" xmlns="http://www.w3.org/2000/svg">
<path fill-rule="evenodd" clip-rule="evenodd" d="M17.5619 21.6405V24.0277C17.5619 25.0927 16.6922 25.9626 15.6272 25.9626H14.2551C13.1901 25.9626 12.3204 25.0934 12.3204 24.0277V22.2901L17.5619 21.6405Z" fill="#B4D2D7"/>
<path fill-rule="evenodd" clip-rule="evenodd" d="M17.5618 21.6405V24.0277C17.5618 25.0927 16.6922 25.9626 15.6271 25.9626H14.6497C15.7147 25.9626 16.5844 25.0927 16.5844 24.0277V21.7617L17.5618 21.6405Z" fill="#9BB9C3"/>
<path fill-rule="evenodd" clip-rule="evenodd" d="M14.9411 0.469116C20.2101 0.469116 24.4813 4.74048 24.4813 10.0092C24.4813 13.4965 22.6105 16.5468 19.8178 18.2107C19.2158 18.5695 18.8733 19.1717 18.8733 19.8727V22.1988C18.8733 22.9212 18.2842 23.5103 17.5619 23.5103H12.3204C11.598 23.5103 11.0089 22.9212 11.0089 22.1988V19.8727C11.0089 19.1716 10.6665 18.5695 10.0645 18.2107C7.27172 16.5468 5.40088 13.4965 5.40088 10.0093C5.40088 4.74048 9.67213 0.469116 14.9411 0.469116Z" fill="#FFDA2D"/>
<path fill-rule="evenodd" clip-rule="evenodd" d="M14.9411 0.469116C20.2101 0.469116 24.4813 4.74042 24.4813 10.0092C24.4813 13.4964 22.6105 16.5468 19.8178 18.2107C19.2157 18.5695 18.8733 19.1718 18.8733 19.8727V22.1988C18.8733 22.9211 18.2842 23.5102 17.5619 23.5102H16.0313C16.7536 23.5102 17.3427 22.9211 17.3427 22.1988V19.8727C17.3427 19.1718 17.6851 18.5695 18.2872 18.2107C21.0799 16.5468 22.9507 13.4964 22.9507 10.0092C22.9507 4.99806 19.0869 0.889526 14.1758 0.499702C14.4283 0.479663 14.6834 0.469116 14.9411 0.469116Z" fill="#FFC700"/>
<path fill-rule="evenodd" clip-rule="evenodd" d="M11.0089 21.2407V22.1988C11.0089 22.9212 11.598 23.5103 12.3204 23.5103H17.5619C18.2842 23.5103 18.8733 22.9212 18.8733 22.1988V21.2407C16.2518 21.2407 13.6303 21.2407 11.0089 21.2407Z" fill="#FFC700"/>
<path fill-rule="evenodd" clip-rule="evenodd" d="M16.0312 23.5103H17.5618C18.2842 23.5103 18.8733 22.9212 18.8733 22.1988V21.2407H17.3428V22.1988C17.3427 22.9211 16.7536 23.5103 16.0312 23.5103Z" fill="#FDB800"/>
<path fill-rule="evenodd" clip-rule="evenodd" d="M6.78601 9.82843C10.1772 3.90062 19.705 3.90062 23.0962 9.82843C23.1387 9.90261 23.1387 9.98728 23.0962 10.0615C19.705 15.9893 10.1772 15.9893 6.78601 10.0615C6.74353 9.98728 6.74353 9.90267 6.78601 9.82843Z" fill="#64B5F6"/>
<path fill-rule="evenodd" clip-rule="evenodd" d="M21.252 7.60889C21.9721 8.22225 22.6002 8.96146 23.0962 9.82848C23.1386 9.90266 23.1386 9.98732 23.0962 10.0616C20.0306 15.42 11.951 15.9341 7.92236 11.6047C12.1259 15.1852 19.4932 14.446 22.3885 9.38527C22.4309 9.31104 22.4309 9.22637 22.3885 9.15219C22.0627 8.58283 21.6801 8.06879 21.252 7.60889Z" fill="#42A5F5"/>
<path d="M14.9411 13.3387C16.8154 13.3387 18.3348 11.8193 18.3348 9.94502C18.3348 8.07077 16.8154 6.55139 14.9411 6.55139C13.0669 6.55139 11.5475 8.07077 11.5475 9.94502C11.5475 11.8193 13.0669 13.3387 14.9411 13.3387Z" fill="#E6F8FF"/>
<path fill-rule="evenodd" clip-rule="evenodd" d="M14.9411 6.55139C15.9144 6.55139 16.7917 6.9612 17.4106 7.6175C16.8667 7.2469 16.2096 7.0301 15.5019 7.0301C13.6276 7.0301 12.1082 8.5495 12.1082 10.4237C12.1082 11.3248 12.4595 12.1437 13.0324 12.7513C12.1361 12.1405 11.5475 11.1116 11.5475 9.94508C11.5475 8.07079 13.0669 6.55139 14.9411 6.55139Z" fill="#DBF4FF"/>
<path fill-rule="evenodd" clip-rule="evenodd" d="M14.941 8.1842C15.9135 8.1842 16.7018 8.97252 16.7018 9.945C16.7018 10.9174 15.9135 11.7057 14.941 11.7057C13.9686 11.7057 13.1803 10.9174 13.1803 9.945C13.1803 9.72457 13.221 9.5137 13.2949 9.31922C13.4147 9.41385 13.566 9.47034 13.7304 9.47034C14.1187 9.47034 14.4334 9.15557 14.4334 8.76733C14.4334 8.59588 14.372 8.43879 14.27 8.3168C14.4769 8.23143 14.7034 8.1842 14.941 8.1842Z" fill="#8D9CA8"/>
<path fill-rule="evenodd" clip-rule="evenodd" d="M16.3485 8.88672C16.5703 9.18133 16.7019 9.54771 16.7019 9.94492C16.7019 10.9173 15.9135 11.7057 14.9411 11.7057C14.2001 11.7057 13.5661 11.2479 13.3063 10.5998C13.6276 11.0264 14.1384 11.3024 14.7136 11.3024C15.6861 11.3024 16.4744 10.514 16.4744 9.54162C16.4744 9.31012 16.4297 9.08916 16.3485 8.88672Z" fill="#7A8C98"/>
<path fill-rule="evenodd" clip-rule="evenodd" d="M14.9416 11.2372C14.2288 11.2372 13.6494 10.6571 13.6494 9.94471C13.6494 9.9423 13.6494 9.93879 13.6494 9.93586C13.6764 9.9382 13.7041 9.93879 13.7309 9.93879C14.3773 9.93879 14.9026 9.41326 14.9026 8.7675C14.9026 8.72941 14.9004 8.69127 14.8968 8.65383C14.9118 8.6533 14.9269 8.6533 14.9416 8.6533C15.654 8.6533 16.2335 9.23279 16.2335 9.94471C16.2336 10.6571 15.654 11.2372 14.9416 11.2372ZM14.9416 7.71574C14.6478 7.71574 14.3618 7.77199 14.0918 7.88326C13.9536 7.94016 13.8511 8.05969 13.8152 8.20441C13.7796 8.34973 13.8152 8.50266 13.9108 8.61756C13.9354 8.6468 13.9652 8.69725 13.9652 8.7675C13.9652 8.89641 13.8599 9.00135 13.7309 9.00135C13.6634 9.00135 13.6148 8.97439 13.5855 8.95143C13.4692 8.85891 13.3144 8.82726 13.1707 8.86717C13.0264 8.90701 12.9101 9.01301 12.8573 9.15246C12.7606 9.40617 12.712 9.67277 12.712 9.94471C12.712 11.1746 13.7121 12.1747 14.9416 12.1747C16.1708 12.1747 17.171 11.1746 17.171 9.94471C17.171 8.71535 16.1708 7.71574 14.9416 7.71574ZM14.9416 12.8696C16.5544 12.8696 17.8665 11.5577 17.8665 9.94471C17.8665 8.33215 16.5544 7.02023 14.9416 7.02023C13.3291 7.02023 12.0164 8.33215 12.0164 9.94471C12.0164 11.5577 13.3291 12.8696 14.9416 12.8696ZM14.9416 6.08279C12.8115 6.08279 11.079 7.81541 11.079 9.94471C11.079 12.0746 12.8114 13.8071 14.9416 13.8071C17.0715 13.8071 18.8039 12.0745 18.8039 9.94471C18.8039 7.81535 17.0715 6.08279 14.9416 6.08279ZM14.9416 14.0386C18.194 14.0386 21.1109 12.4765 22.622 9.94471C21.1109 7.4134 18.194 5.85135 14.9416 5.85135C11.6889 5.85135 8.77225 7.4134 7.26147 9.94471C8.7723 12.4765 11.6889 14.0386 14.9416 14.0386ZM23.5724 9.71842C22.7328 8.19504 21.4519 6.94635 19.8693 6.1091C18.3922 5.32688 16.6881 4.91373 14.9416 4.91373C13.1948 4.91373 11.4908 5.32688 10.0137 6.1091C8.43129 6.94635 7.1509 8.19504 6.31055 9.71842C6.23262 9.85975 6.23262 10.0302 6.31055 10.1714C7.1509 11.6949 8.43129 12.9435 10.0137 13.7808C11.4908 14.5631 13.1948 14.9761 14.9416 14.9761C16.6881 14.9761 18.3921 14.5631 19.8693 13.7808C21.4519 12.9435 22.7329 11.6949 23.5724 10.1714C23.6503 10.0302 23.6503 9.85975 23.5724 9.71842ZM27.8813 17.4159C27.7956 17.5659 27.6381 17.6503 27.4751 17.6503C27.3949 17.6503 27.3148 17.6298 27.2402 17.587L25.0957 16.3489C24.8713 16.2194 24.7948 15.9323 24.9241 15.7085C25.0537 15.484 25.3403 15.4073 25.5647 15.5368L27.71 16.7755C27.9338 16.905 28.0112 17.1915 27.8813 17.4159ZM2.94621 10.4139H0.468691C0.209766 10.4139 0 10.2036 0 9.94518C0 9.68619 0.209766 9.47648 0.468691 9.47648H2.94621C3.20461 9.47648 3.4149 9.68625 3.4149 9.94518C3.4149 10.2037 3.20461 10.4139 2.94621 10.4139ZM24.924 4.18131C24.7947 3.95754 24.8712 3.67037 25.0956 3.54147L27.2401 2.30285C27.4639 2.1733 27.7513 2.25006 27.8813 2.47447C28.0112 2.69836 27.9337 2.98482 27.7099 3.11432L25.5646 4.35305C25.4905 4.39582 25.4098 4.41574 25.3308 4.41574C25.1684 4.4158 25.0108 4.33189 24.924 4.18131ZM2.00221 2.47453C2.13123 2.25012 2.41758 2.17336 2.64193 2.30291L4.78729 3.54152C5.0117 3.67043 5.08822 3.95754 4.95891 4.18137C4.87213 4.33195 4.71457 4.4158 4.55297 4.4158C4.47311 4.4158 4.39242 4.39582 4.3183 4.35311L2.17324 3.11438C1.94941 2.98488 1.8726 2.69842 2.00221 2.47453ZM4.95891 15.7085C5.08822 15.9323 5.0117 16.2194 4.78729 16.3489L2.64193 17.587C2.56816 17.6298 2.48801 17.6503 2.40814 17.6503C2.2459 17.6503 2.08898 17.5659 2.00221 17.4159C1.8726 17.1915 1.94941 16.905 2.17324 16.7755L4.3183 15.5368C4.54301 15.4073 4.8293 15.484 4.95891 15.7085ZM29.8821 9.94523C29.8821 10.2037 29.6721 10.414 29.4151 10.414H26.9361C26.6791 10.414 26.4691 10.2037 26.4691 9.94523C26.4691 9.68625 26.6791 9.47654 26.9361 9.47654H29.4151C29.6721 9.47654 29.8821 9.68625 29.8821 9.94523ZM19.5785 17.8085C22.3138 16.1784 24.0129 13.1901 24.0129 10.0096C24.0129 5.00754 19.9436 0.937617 14.9416 0.937617C9.93932 0.937617 5.86998 5.00754 5.86998 10.0096C5.86998 13.19 7.56926 16.1784 10.3049 17.8085C11.0502 18.2527 11.478 19.0049 11.478 19.8728V20.7722H18.4048V19.8728C18.4049 19.005 18.8327 18.2527 19.5785 17.8085ZM17.5622 23.0421H12.3206C11.8558 23.0421 11.478 22.6642 11.478 22.1989V21.7097H18.4049V22.1989C18.4049 22.6642 18.0271 23.0421 17.5622 23.0421ZM15.6278 25.4943H14.2554C13.4473 25.4943 12.7893 24.8363 12.7893 24.0282V23.9796H17.0935V24.0282C17.0936 24.8363 16.4361 25.4943 15.6278 25.4943ZM14.9416 0C9.42252 0 4.93236 4.49021 4.93236 10.0097C4.93236 11.7751 5.3983 13.5113 6.28014 15.0294C7.13572 16.5025 8.36139 17.7418 9.82518 18.6136C10.2861 18.8891 10.5404 19.3361 10.5404 19.8728V22.1989C10.5404 23.0187 11.0972 23.7101 11.8519 23.9163V24.0282C11.8519 25.3536 12.93 26.4318 14.2554 26.4318H15.6278C16.9529 26.4318 18.0312 25.3536 18.0312 24.0282V23.9163C18.786 23.7101 19.3425 23.0187 19.3425 22.1989V19.8728C19.3425 19.3361 19.5967 18.889 20.0585 18.6136C21.5215 17.7418 22.7471 16.5025 23.6027 15.0294C24.4846 13.5113 24.9505 11.7751 24.9505 10.0097C24.9506 4.49016 20.4604 0 14.9416 0Z" fill="black"/>
</svg>
