<svg width="35" height="35" viewBox="0 0 35 35" fill="none" xmlns="http://www.w3.org/2000/svg">
<g clip-path="url(#clip0_2313_2091)">
<path fill-rule="evenodd" clip-rule="evenodd" d="M23.1079 6.89457V8.13862C23.1079 9.65977 24.3442 10.8961 25.8654 10.8961C27.3865 10.8961 28.6228 9.65977 28.6228 8.13862V6.9217C28.4697 4.83666 26.8362 4.65645 26.1386 4.67776C24.7163 4.71845 23.1254 5.6389 23.1079 6.89457ZM21.8774 7.07285C20.8969 5.50325 20.9589 3.96854 22.0576 2.83688C22.7184 2.15672 22.6487 1.5657 23.2649 0.935928C24.3093 -0.133721 25.7995 0.129816 26.8304 0.420481C27.4059 0.583254 28.4174 0.443735 29.1169 0.978559C29.9889 1.64709 30.5548 2.60822 30.7059 3.68175C30.8648 4.80178 30.5683 5.97413 29.8533 7.08641V8.13862C29.8533 10.338 28.0647 12.1265 25.8654 12.1265C23.666 12.1265 21.8774 10.338 21.8774 8.13862V7.07285Z" fill="white"/>
<path fill-rule="evenodd" clip-rule="evenodd" d="M23.1234 13.5721C23.0188 13.5721 22.9103 13.545 22.8134 13.4869C22.5208 13.3144 22.4219 12.9385 22.5944 12.6459L23.6931 10.772C23.8656 10.4775 24.2415 10.3806 24.5341 10.5511C24.8286 10.7236 24.9255 11.0995 24.755 11.3941L23.6544 13.2679C23.54 13.4636 23.3346 13.5721 23.1234 13.5721Z" fill="white"/>
<path fill-rule="evenodd" clip-rule="evenodd" d="M34.3741 21.6158H31.3783V18.8235C31.3783 18.6472 31.2349 18.5038 31.0586 18.5038C30.8822 18.5038 30.7388 18.6472 30.7388 18.8235V21.6158H27.4078L27.0241 16.6939C27.0241 16.6862 27.0241 16.6784 27.0222 16.6687L27.1346 15.7386C27.1559 15.7425 27.1772 15.7444 27.1985 15.7444C27.2198 15.7444 27.2412 15.7425 27.2605 15.7386L29.3843 15.32C29.518 15.2948 29.6207 15.1844 29.6382 15.0487L30.0005 12.3591C32.789 12.5839 34.9903 14.9247 34.9903 17.7694V21.0016C34.9903 21.3407 34.7151 21.6158 34.3741 21.6158ZM27.2121 15.0972L27.4853 12.8513L28.2817 12.4172C28.3709 12.3669 28.4736 12.3417 28.5763 12.3417H29.3572L29.0336 14.7387L27.2121 15.0972ZM26.561 16.4226H25.1387L24.9623 13.2582L25.8498 13.7427L26.7354 13.2602L26.561 16.4226ZM24.6775 16.6707C24.6756 16.6784 24.6756 16.6862 24.6756 16.6939L24.2919 21.6158H20.9608V18.8235C20.9608 18.6472 20.8175 18.5038 20.6411 18.5038C20.4648 18.5038 20.3214 18.6472 20.3214 18.8235V21.6158H17.3256C16.9865 21.6158 16.7094 21.3407 16.7094 21.0016V17.7694C16.7094 14.9208 18.9165 12.5781 21.7108 12.3591L22.0615 15.0487C22.0789 15.1844 22.1816 15.2948 22.3173 15.32L24.4391 15.7386C24.4585 15.7425 24.4798 15.7444 24.5012 15.7444C24.5225 15.7444 24.5438 15.7425 24.5651 15.7386L24.6775 16.6707ZM22.3522 12.3417H23.1253C23.228 12.3417 23.3288 12.3669 23.4199 12.4172L24.2144 12.8513L24.4876 15.0972L22.6641 14.7387L22.3522 12.3417ZM26.749 21.6158H24.9507L25.2627 17.0621H26.437L26.749 21.6158Z" fill="white"/>
<path fill-rule="evenodd" clip-rule="evenodd" d="M28.5763 13.5722C28.3651 13.5722 28.1597 13.4637 28.0453 13.268L26.9524 11.4058C26.7819 11.1132 26.8788 10.7372 27.1733 10.5648C27.4659 10.3923 27.8419 10.4911 28.0143 10.7837L29.1053 12.6459C29.2778 12.9385 29.1789 13.3145 28.8863 13.4869C28.7894 13.5451 28.6809 13.5722 28.5763 13.5722Z" fill="white"/>
<path fill-rule="evenodd" clip-rule="evenodd" d="M6.87133 18.8526V20.2071C6.87133 21.8929 8.2452 23.2668 9.93106 23.2668C11.6189 23.2668 12.9908 21.8929 12.9908 20.2071V18.8797C12.8222 16.5563 11.0027 16.3567 10.2275 16.378C8.65214 16.4245 6.88877 17.4516 6.87133 18.8526ZM5.64278 19.0289C4.5615 17.3159 4.62157 15.7018 5.82105 14.4674C6.55159 13.7175 6.47602 13.0722 7.1368 12.394C8.25489 11.2507 9.85937 11.5355 10.9697 11.8495C11.5995 12.0277 12.6943 11.8766 13.4404 12.4482C14.3802 13.1671 14.9886 14.2019 15.1514 15.3568C15.3219 16.5679 15.0003 17.8391 14.2213 19.0425V20.2071C14.2213 22.5711 12.2971 24.4954 9.93106 24.4954C7.56698 24.4954 5.64278 22.5711 5.64278 20.2071V19.0289Z" fill="white"/>
<path fill-rule="evenodd" clip-rule="evenodd" d="M12.8842 26.0707C12.675 26.0707 12.4696 25.9622 12.3552 25.7665L11.1635 23.7377C10.993 23.4451 11.0899 23.0691 11.3844 22.8967C11.677 22.7261 12.0529 22.823 12.2254 23.1156L13.4152 25.1445C13.5876 25.4371 13.4888 25.8149 13.1962 25.9855C13.0974 26.0436 12.9908 26.0707 12.8842 26.0707Z" fill="white"/>
<path fill-rule="evenodd" clip-rule="evenodd" d="M6.94498 26.0708C6.8384 26.0708 6.73182 26.0436 6.633 25.9855C6.34039 25.815 6.2435 25.4371 6.41403 25.1445L7.61157 23.1021C7.78403 22.8095 8.1619 22.7107 8.4545 22.8831C8.7471 23.0556 8.84593 23.4315 8.67347 23.7241L7.47593 25.7665C7.3616 25.9622 7.15619 26.0708 6.94498 26.0708Z" fill="white"/>
<path fill-rule="evenodd" clip-rule="evenodd" d="M19.2033 34.8372H15.9091V30.95C15.9091 30.7737 15.7676 30.6303 15.5894 30.6303C15.413 30.6303 15.2696 30.7737 15.2696 30.95V34.8372H4.55957V30.95C4.55957 30.7737 4.41618 30.6303 4.23984 30.6303C4.0635 30.6303 3.92011 30.7737 3.92011 30.95V34.8372H0.6259C0.286791 34.8372 0.0116272 34.562 0.0116272 34.2229V30.7C0.0116272 27.4698 2.63924 24.8402 5.86951 24.8402H6.94497C6.99729 24.8402 7.04961 24.848 7.10193 24.8615C7.41585 24.9448 7.69488 25.0185 7.94486 25.0863C8.96219 25.3615 9.47376 25.4991 9.94464 25.4991C10.4485 25.4991 11.0317 25.3363 12.1944 25.0107C12.3572 24.9642 12.5335 24.9158 12.7195 24.8635C12.7738 24.848 12.828 24.8402 12.8842 24.8402H13.9597C17.19 24.8402 19.8195 27.4698 19.8195 30.7V34.2229C19.8195 34.562 19.5443 34.8372 19.2033 34.8372Z" fill="white"/>
<path fill-rule="evenodd" clip-rule="evenodd" d="M14.7387 10.4504C14.6573 10.4504 14.5759 10.4349 14.4984 10.4019L8.99901 8.08823H3.50737C3.16826 8.08823 2.8931 7.81113 2.8931 7.47202V0.780899C2.8931 0.441789 3.16826 0.166626 3.50737 0.166626H16.5679C16.907 0.166626 17.1841 0.441789 17.1841 0.780899V7.47202C17.1841 7.81113 16.907 8.08823 16.5679 8.08823H15.353V9.8361C15.353 10.0415 15.2503 10.2333 15.0778 10.3477C14.9751 10.4155 14.8569 10.4504 14.7387 10.4504ZM14.2678 5.50906C14.4441 5.50906 14.5875 5.36566 14.5875 5.18933C14.5875 5.01299 14.4441 4.86959 14.2678 4.86959H5.8075C5.63117 4.86959 5.48777 5.01299 5.48777 5.18933C5.48777 5.36566 5.63117 5.50906 5.8075 5.50906H14.2678ZM14.2678 3.38526C14.4441 3.38526 14.5875 3.24187 14.5875 3.06553C14.5875 2.88919 14.4441 2.7458 14.2678 2.7458H5.8075C5.63117 2.7458 5.48777 2.88919 5.48777 3.06553C5.48777 3.24187 5.63117 3.38526 5.8075 3.38526H14.2678Z" fill="white"/>
<path fill-rule="evenodd" clip-rule="evenodd" d="M33.6668 34.8373H20.24C20.3485 34.657 20.4086 34.4478 20.4086 34.223V31.8143H24.8287V32.0139C24.8287 32.6805 25.3674 33.2192 26.034 33.2192C26.6986 33.2192 27.2392 32.6805 27.2392 32.0139V31.8143H34.283V34.223C34.283 34.5621 34.0079 34.8373 33.6668 34.8373Z" fill="white"/>
<path fill-rule="evenodd" clip-rule="evenodd" d="M28.865 27.0862H23.2009C22.8618 27.0862 22.5866 26.811 22.5866 26.4719V23.0789C22.5866 22.7398 22.8618 22.4646 23.2009 22.4646H28.865C29.2061 22.4646 29.4812 22.7398 29.4812 23.0789V26.4719C29.4812 26.811 29.2061 27.0862 28.865 27.0862ZM23.8171 25.8557H28.2507V23.6951H23.8171V25.8557Z" fill="white"/>
<path fill-rule="evenodd" clip-rule="evenodd" d="M34.3741 31.2232H27.2392V31.0236C27.2392 30.357 26.6986 29.8183 26.0339 29.8183C25.3674 29.8183 24.8287 30.357 24.8287 31.0236V31.2232H20.4086V30.7C20.4086 28.7719 19.5579 27.0396 18.2131 25.8556H34.3741C34.7152 25.8556 34.9903 26.1308 34.9903 26.4718V30.6089C34.9903 30.9481 34.7152 31.2232 34.3741 31.2232Z" fill="white"/>
<path fill-rule="evenodd" clip-rule="evenodd" d="M26.034 32.6301C25.6948 32.6301 25.4197 32.3549 25.4197 32.0139V31.0237C25.4197 30.6846 25.6948 30.4075 26.034 30.4075C26.3731 30.4075 26.6482 30.6846 26.6482 31.0237V32.0139C26.6482 32.3549 26.3731 32.6301 26.034 32.6301Z" fill="white"/>
</g>
<defs>
<clipPath id="clip0_2313_2091">
<rect width="35" height="35" fill="white"/>
</clipPath>
</defs>
</svg>
