<svg width="35" height="35" viewBox="0 0 35 35" fill="none" xmlns="http://www.w3.org/2000/svg">
<path d="M4.62988 6.66504H7.98834V10.0189H4.62988V6.66504Z" fill="white"/>
<path d="M18.8779 2.79639V7.51108H23.5926L18.8779 2.79639Z" fill="white"/>
<path d="M4.62988 15.8452H7.98834V19.199H4.62988V15.8452Z" fill="white"/>
<path d="M4.62988 25.0249H7.98834V28.3787H4.62988V25.0249Z" fill="white"/>
<path d="M17.2411 27.8213C15.8411 26.4213 15.069 24.5581 15.069 22.5764C15.069 20.6 15.8411 18.7367 17.2411 17.3367C18.6411 15.9368 20.5043 15.1647 22.4859 15.1647C23.0984 15.1647 23.7006 15.2419 24.2823 15.386L24.3183 13.8264V8.54041H18.3631C18.0749 8.54041 17.8484 8.30881 17.8484 8.0257V2.06543H3.78151C2.88078 2.06543 2.1499 2.7963 2.1499 3.69704V30.1632C2.1499 31.0639 2.88078 31.7948 3.78151 31.7948H22.6866C23.1653 31.7948 23.6131 31.589 23.9168 31.2338L23.9477 29.8389C23.4742 29.9367 22.9852 29.9831 22.4962 29.9831C20.5043 29.9831 18.6359 29.2162 17.2411 27.8213ZM11.1602 10.0185H18.5234C18.8079 10.0185 19.0382 10.249 19.0382 10.5332C19.0382 10.8175 18.8079 11.0479 18.5234 11.0479H11.1602C10.8757 11.0479 10.6455 10.8175 10.6455 10.5332C10.6455 10.249 10.8757 10.0185 11.1602 10.0185ZM11.1587 19.1993H13.9057C14.1902 19.1993 14.4204 19.4297 14.4204 19.714C14.4204 19.9982 14.1902 20.2287 13.9057 20.2287H11.1587C10.8742 20.2287 10.644 19.9982 10.644 19.714C10.644 19.4297 10.8742 19.1993 11.1587 19.1993ZM9.01798 28.8938C9.01798 29.178 8.78777 29.4085 8.50327 29.4085H4.1152C3.83071 29.4085 3.6005 29.178 3.6005 28.8938V24.5105C3.6005 24.2262 3.83071 23.9958 4.1152 23.9958H8.50327C8.78777 23.9958 9.01798 24.2262 9.01798 24.5105V28.8938ZM9.01798 19.7135C9.01798 19.9977 8.78777 20.2282 8.50327 20.2282H4.1152C3.83071 20.2282 3.6005 19.9977 3.6005 19.7135V15.3302C3.6005 15.046 3.83071 14.8155 4.1152 14.8155H8.50327C8.78777 14.8155 9.01798 15.046 9.01798 15.3302V19.7135ZM9.01798 10.5332C9.01798 10.8175 8.78777 11.0479 8.50327 11.0479H4.1152C3.83071 11.0479 3.6005 10.8175 3.6005 10.5332V6.14993C3.6005 5.86569 3.83071 5.63523 4.1152 5.63523H8.50327C8.78777 5.63523 9.01798 5.86569 9.01798 6.14993V10.5332ZM16.0138 29.4075H11.1587C10.8742 29.4075 10.644 29.177 10.644 28.8927C10.644 28.6085 10.8742 28.378 11.1587 28.378H16.0138C16.2983 28.378 16.5285 28.6085 16.5285 28.8927C16.5285 29.177 16.2983 29.4075 16.0138 29.4075Z" fill="white"/>
<path d="M23.1533 19.0543C23.1403 19.0446 23.1293 19.0325 23.1158 19.0233C23.1095 19.019 23.1022 19.0165 23.0958 19.0124C22.9198 18.8979 22.7113 18.8296 22.4861 18.8296C22.4854 18.8296 22.4848 18.8298 22.4841 18.8298C21.8603 18.8298 21.353 19.3369 21.353 19.9602C21.353 20.2874 21.4948 20.58 21.7176 20.7867L22.0126 21.1149C22.1628 21.0998 22.318 21.0904 22.4732 21.0898C22.4769 21.0898 22.4803 21.0909 22.484 21.0909C22.4882 21.0909 22.492 21.0897 22.4962 21.0897C22.6522 21.0901 22.8034 21.0998 22.9545 21.1149L23.2483 20.7879C23.4719 20.5812 23.6144 20.2881 23.6144 19.9602C23.6144 19.5883 23.4315 19.2604 23.1533 19.0543Z" fill="white"/>
<path d="M26.9979 18.0647C25.7911 16.8579 24.1886 16.1934 22.4842 16.1934C20.7802 16.1934 19.1773 16.8579 17.9705 18.0647C16.7636 19.2713 16.0991 20.8745 16.0991 22.5784C16.0991 24.2824 16.7636 25.8856 17.9705 27.0922C20.2012 29.3229 23.78 29.5817 26.2952 27.6963C26.544 27.5134 26.7793 27.3111 26.9979 27.0924C27.2166 26.8738 27.4116 26.6468 27.5941 26.398C29.4865 23.876 29.2291 20.2954 26.9979 18.0647ZM26.4435 26.0801C26.159 26.0801 25.9288 25.8496 25.9288 25.5654C25.9288 23.6656 24.3832 22.1203 22.4837 22.1203C20.5837 22.1203 19.0381 23.6656 19.0381 25.5654C19.0381 25.8496 18.8079 26.0801 18.5234 26.0801C18.2389 26.0801 18.0087 25.8496 18.0087 25.5654C18.0087 23.6639 19.2031 22.04 20.8795 21.3932C20.5376 21.0109 20.3233 20.5121 20.3233 19.9602C20.3233 18.7692 21.2924 17.8003 22.4837 17.8003C23.6744 17.8003 24.6435 18.7692 24.6435 19.9602C24.6435 20.512 24.4293 21.0108 24.0876 21.3931C25.7639 22.0398 26.9582 23.6638 26.9582 25.5654C26.9582 25.8496 26.728 26.0801 26.4435 26.0801Z" fill="white"/>
<path d="M32.4828 30.8054L29.9022 28.2246L28.1284 29.9984L30.709 32.5793C31.183 33.0522 32.0088 33.0537 32.4828 32.5793C32.7201 32.3423 32.8502 32.0274 32.8502 31.6923C32.8502 31.3573 32.7201 31.0424 32.4828 30.8054Z" fill="white"/>
<path d="M28.0516 27.4722C27.9476 27.591 27.8395 27.7067 27.7254 27.8202C27.6118 27.9338 27.4947 28.0439 27.3735 28.1495L27.9476 28.7235L28.6251 28.0457L28.0516 27.4722Z" fill="white"/>
</svg>
