<svg width="35" height="35" viewBox="0 0 35 35" fill="none" xmlns="http://www.w3.org/2000/svg">
<path d="M25.2658 6.3999C23.2113 6.3999 21.5488 8.0624 21.5488 10.1134C21.5488 10.9534 21.8288 11.7269 22.3013 12.3464C22.4833 12.5879 22.6968 12.8084 22.9313 12.9974H27.5968C27.8313 12.8084 28.0448 12.5879 28.2268 12.3464C28.6958 11.7269 28.9758 10.9534 28.9758 10.1134C28.9758 8.0624 27.3133 6.3999 25.2658 6.3999ZM23.712 9.18819C23.6761 9.26373 23.6453 9.34252 23.6201 9.42352C23.5635 9.60617 23.3695 9.71207 23.1822 9.65458C22.9976 9.59733 22.8944 9.40131 22.9515 9.21673C22.986 9.10445 23.0294 8.99371 23.0797 8.88775C23.1627 8.71327 23.3712 8.63893 23.5462 8.72181C23.7205 8.80487 23.7951 9.01371 23.712 9.18819ZM25.2638 8.21031C24.9332 8.21031 24.6123 8.30431 24.3358 8.48204C24.277 8.51964 24.2117 8.53758 24.1468 8.53758C24.0316 8.53758 23.9188 8.48084 23.8521 8.37677C23.7475 8.21424 23.7947 7.99772 23.9571 7.89312C24.3471 7.64276 24.7986 7.51031 25.2638 7.51031C25.4572 7.51031 25.6138 7.66702 25.6138 7.86031C25.6138 8.0536 25.4572 8.21031 25.2638 8.21031Z" fill="white"/>
<path d="M28.8341 14.7058C28.8341 15.2631 28.3823 15.7149 27.825 15.7149H22.701C22.1437 15.7149 21.6919 15.2631 21.6919 14.7058C21.6919 14.1486 22.1437 13.6968 22.701 13.6968H27.825C28.3823 13.6968 28.8341 14.1486 28.8341 14.7058Z" fill="white"/>
<path d="M32.2107 26.9157V28.3789H18.3154V26.9157C18.3154 26.5019 18.6508 26.1665 19.0646 26.1665H31.4615C31.8753 26.1665 32.2107 26.5019 32.2107 26.9157Z" fill="white"/>
<path d="M30.5475 25.4676H19.9775C21.6015 22.8986 22.4906 19.8396 22.8335 16.4131H27.6915C28.0345 19.8396 28.9235 22.8986 30.5475 25.4676Z" fill="white"/>
<path d="M24.1005 1.05176H3.85645C2.38297 1.05176 1.18945 2.24527 1.18945 3.71876V31.2813C1.18945 32.7548 2.38296 33.9483 3.85645 33.9483H16.2115C16.0855 33.7418 16.0155 33.5003 16.0155 33.2413V29.7833C16.0155 29.0098 16.6455 28.3798 17.4225 28.3798H17.615V26.9168C17.615 26.1153 18.266 25.4678 19.064 25.4678H19.148L19.386 25.0933C20.884 22.7238 21.7835 19.8608 22.137 16.3433L22.1405 16.3153C21.472 16.0843 20.9925 15.4508 20.9925 14.7053C20.9925 13.9948 21.4265 13.3858 22.046 13.1303C21.9375 13.0148 21.8359 12.8923 21.7415 12.7663C21.1605 12.0033 20.849 11.0828 20.849 10.1133C20.849 7.68076 22.83 5.69977 25.266 5.69977C25.7944 5.69977 26.302 5.79428 26.771 5.96577V3.71876C26.771 2.24527 25.574 1.05176 24.1005 1.05176ZM4.80846 4.97527C4.80846 4.54127 5.16197 4.18777 5.59596 4.18777H8.12295C8.55695 4.18777 8.91045 4.54127 8.91045 4.97527V7.50225C8.91045 7.93627 8.55695 8.28975 8.12295 8.28975H5.59596C5.16197 8.28975 4.80846 7.93627 4.80846 7.50225V4.97527ZM4.36746 28.6878C3.82496 28.6878 3.38396 28.2468 3.38396 27.7008C3.38396 27.1583 3.82496 26.7208 4.36746 26.7208C4.90996 26.7208 5.35446 27.1583 5.35446 27.7008C5.35446 28.2468 4.90996 28.6878 4.36746 28.6878ZM4.80846 14.0158V11.4888C4.80846 11.0548 5.16197 10.7048 5.59596 10.7048H8.12295C8.55695 10.7048 8.91045 11.0548 8.91045 11.4888V14.0158C8.91045 14.4498 8.55695 14.8033 8.12295 14.8033H5.59596C5.16197 14.8033 4.80846 14.4498 4.80846 14.0158ZM6.31696 20.5468C6.31696 20.0043 6.75797 19.5668 7.30046 19.5668C7.84296 19.5668 8.28747 20.0043 8.28747 20.5468C8.28747 21.0928 7.84296 21.5338 7.30046 21.5338C6.75797 21.5338 6.31696 21.0928 6.31696 20.5468ZM15.6725 28.0263C15.809 28.1628 15.809 28.3833 15.6725 28.5198C15.536 28.6563 15.312 28.6563 15.1755 28.5198L14.857 28.1978L14.535 28.5198C14.3985 28.6563 14.178 28.6563 14.0415 28.5198C13.905 28.3833 13.905 28.1628 14.0415 28.0263L14.36 27.7043L14.0415 27.3823C13.905 27.2458 13.905 27.0253 14.0415 26.8888C14.178 26.7523 14.3985 26.7523 14.535 26.8888L14.857 27.2073L15.1755 26.8888C15.312 26.7523 15.536 26.7523 15.6725 26.8888C15.809 27.0253 15.809 27.2458 15.6725 27.3823L15.3505 27.7043L15.6725 28.0263ZM16.8135 20.8198C16.6665 20.9423 16.446 20.9213 16.3235 20.7743L15.7985 20.1408C15.34 24.5788 11.581 28.0543 7.02397 28.0543C6.83145 28.0543 6.67397 27.8968 6.67397 27.7043C6.67397 27.5118 6.83145 27.3543 7.02397 27.3543C11.2415 27.3543 14.7135 24.1238 15.109 20.0078L14.402 20.5888C14.255 20.7113 14.0345 20.6903 13.9085 20.5433C13.786 20.3928 13.807 20.1723 13.9575 20.0498C13.9575 20.0498 15.214 19.0033 15.3015 18.9438C15.4625 18.8318 15.6725 18.8878 15.7705 19.0068L16.8625 20.3263C16.985 20.4768 16.964 20.6973 16.8135 20.8198ZM14.857 16.5323C14.7205 16.3958 14.7205 16.1753 14.857 16.0388C14.9935 15.9023 15.214 15.9023 15.3505 16.0388L15.6725 16.3573L15.9944 16.0388C16.131 15.9023 16.3515 15.9023 16.488 16.0388C16.6245 16.1753 16.6245 16.3958 16.488 16.5323L16.1694 16.8543L16.488 17.1728C16.6245 17.3093 16.6245 17.5333 16.488 17.6698C16.3515 17.8063 16.131 17.8063 15.9944 17.6698L15.6725 17.3478L15.3505 17.6698C15.214 17.8063 14.9935 17.8063 14.857 17.6698C14.7205 17.5333 14.7205 17.3093 14.857 17.1728L15.179 16.8543L14.857 16.5323ZM17.874 14.2153H11.8365C11.644 14.2153 11.4865 14.0613 11.4865 13.8653C11.4865 13.6728 11.644 13.5153 11.8365 13.5153H17.874C18.0665 13.5153 18.224 13.6728 18.224 13.8653C18.224 14.0613 18.0665 14.2153 17.874 14.2153ZM17.874 11.9893H11.8365C11.644 11.9893 11.4865 11.8318 11.4865 11.6393C11.4865 11.4468 11.644 11.2893 11.8365 11.2893H17.874C18.0665 11.2893 18.224 11.4468 18.224 11.6393C18.224 11.8318 18.0665 11.9893 17.874 11.9893ZM19.8305 7.70176H11.8365C11.644 7.70176 11.4865 7.54428 11.4865 7.35176C11.4865 7.15926 11.644 7.00176 11.8365 7.00176H19.8305C20.023 7.00176 20.1805 7.15926 20.1805 7.35176C20.1805 7.54428 20.023 7.70176 19.8305 7.70176ZM22.473 5.47576H11.8365C11.644 5.47576 11.4865 5.31826 11.4865 5.12576C11.4865 4.93327 11.644 4.77576 11.8365 4.77576H22.473C22.6655 4.77576 22.823 4.93327 22.823 5.12576C22.823 5.31826 22.6655 5.47576 22.473 5.47576Z" fill="white"/>
<path d="M33.1047 29.0781H17.422C17.0322 29.0781 16.7163 29.3941 16.7163 29.7838V33.2428C16.7163 33.6325 17.0322 33.9485 17.422 33.9485H33.1047C33.4944 33.9485 33.8104 33.6325 33.8104 33.2428V29.7838C33.8104 29.3941 33.4944 29.0781 33.1047 29.0781ZM19.6436 30.9382H19.0848C18.8913 30.9382 18.7348 30.7815 18.7348 30.5882C18.7348 30.3949 18.8913 30.2382 19.0848 30.2382H19.6436C19.8371 30.2382 19.9936 30.3949 19.9936 30.5882C19.9936 30.7815 19.8371 30.9382 19.6436 30.9382ZM22.8671 30.9382H20.9869C20.7934 30.9382 20.6369 30.7815 20.6369 30.5882C20.6369 30.3949 20.7934 30.2382 20.9869 30.2382H22.8671C23.0605 30.2382 23.2171 30.3949 23.2171 30.5882C23.2171 30.7815 23.0605 30.9382 22.8671 30.9382Z" fill="white"/>
</svg>
