<svg width="50" height="50" viewBox="0 0 50 50" fill="none" xmlns="http://www.w3.org/2000/svg">
<g clip-path="url(#clip0_2313_2220)">
<path d="M39.3036 32.3242C36.5524 37.6804 31.0635 41.1133 25 41.1133C18.9365 41.1133 13.4476 37.6804 10.6964 32.3242H4.34113C4.87251 33.828 5.52101 35.284 6.36635 36.6356L5.10025 38.747C4.75388 39.3238 4.84543 40.062 5.32036 40.5369L9.46312 44.6796C9.9369 45.1557 10.6735 45.2431 11.253 44.8997L13.3644 43.6337C15.4255 44.9242 17.6674 45.8511 20.0504 46.3974L20.6497 48.7938C20.813 49.4446 21.3978 50 22.0703 50H27.9297C28.6022 50 29.187 49.4446 29.3503 48.7938L29.9496 46.3974C32.333 45.8511 34.5745 44.9242 36.636 43.6337L38.7474 44.8997C39.3238 45.2446 40.062 45.153 40.5369 44.6796L44.6796 40.5369C45.1546 40.062 45.2461 39.3238 44.8997 38.747L43.634 36.6356C44.479 35.284 45.1275 33.828 45.6589 32.3242H39.3036Z" fill="#4D64DD"/>
<path d="M47.8027 25H2.19727C0.98381 25 0 25.9838 0 27.1973C0 28.4107 0.98381 29.3945 2.19727 29.3945H47.8027C49.0162 29.3945 50 28.4107 50 27.1973C50 25.9838 49.0162 25 47.8027 25Z" fill="#4D64DD"/>
<path d="M39.6485 8.75816V13.2812C39.6485 14.0907 38.9931 14.7461 38.1836 14.7461C37.3741 14.7461 36.7188 14.0907 36.7188 13.2812V6.55098C35.7895 5.95741 34.8118 5.43823 33.7891 4.98695V13.2812C33.7891 14.0907 33.1337 14.7461 32.3242 14.7461C31.5148 14.7461 30.8594 14.0907 30.8594 13.2812V2.92969C30.8594 1.31149 29.5479 0 27.9297 0H22.0703C20.4514 0.00038147 19.1406 1.31187 19.1406 2.92969V13.2812C19.1406 14.0907 18.4853 14.7461 17.6758 14.7461C16.8663 14.7461 16.211 14.0907 16.211 13.2812V4.98695C15.1882 5.43823 14.2105 5.95741 13.2813 6.55098V13.2812C13.2813 14.0907 12.6259 14.7461 11.8164 14.7461C11.0069 14.7461 10.3516 14.0907 10.3516 13.2812V8.75816C6.55443 12.1933 3.97646 16.8888 3.26196 22.0703H46.7381C46.0236 16.8888 43.4456 12.1933 39.6485 8.75816Z" fill="#4D64DD"/>
</g>
<defs>
<clipPath id="clip0_2313_2220">
<rect width="50" height="50" fill="white"/>
</clipPath>
</defs>
</svg>
