<svg width="70" height="70" viewBox="0 0 70 70" fill="none" xmlns="http://www.w3.org/2000/svg">
<path d="M45.9375 33.9062H63.4375V30.625H61.25V24.0625H60.1562V18.5938H57.9688V24.0625H56.875V30.625H45.9375V33.9062Z" fill="#13AEA1"/>
<path d="M38.2812 3.28125H36.0938V8.72813L38.2812 8.29063V3.28125Z" fill="#13AEA1"/>
<path d="M42.6562 1.09375H40.4688V7.85312L42.6562 7.41563V1.09375Z" fill="#13AEA1"/>
<path d="M47.0312 3.28125H44.8438V6.97813L47.0312 6.54063V3.28125Z" fill="#13AEA1"/>
<path d="M40.1953 59.5438C40.9697 59.2278 41.8031 59.0626 42.6562 59.0626V33.9063H43.75V28.4376H51.4062V7.89697L31.7188 11.8345V57.1518C32.4209 56.9724 33.1537 56.8751 33.9062 56.8751C36.307 56.8751 38.5678 57.8617 40.1953 59.5438ZM43.75 15.3126H48.125V21.8751H43.75V15.3126ZM35 15.3126H39.375V21.8751H35V15.3126ZM35 26.2501H39.375V32.8126H35V26.2501ZM35 37.1876H39.375V43.7501H35V37.1876ZM35 48.1251H39.375V54.6876H35V48.1251Z" fill="#13AEA1"/>
<path d="M51.4062 56.875C52.1588 56.875 52.8905 56.9767 53.5938 57.1583V40.4688H49.2188V57.1648C49.9253 56.9811 50.657 56.875 51.4062 56.875Z" fill="#13AEA1"/>
<path d="M58.9848 61.25H59.0625C59.4333 61.25 59.7953 61.2905 60.1562 61.3364V40.4688H55.7812V58.0442C57.0992 58.8055 58.2105 59.9036 58.9848 61.25Z" fill="#13AEA1"/>
<path d="M64.5312 63.2034V36.0938H44.8438V59.4628C44.9334 59.4945 45.0286 59.5088 45.1172 59.5448C45.6838 58.9586 46.3313 58.4631 47.0312 58.0584V38.2812H62.3438V61.9172C63.1345 62.2398 63.8684 62.6708 64.5312 63.2034Z" fill="#13AEA1"/>
<path d="M64.7325 66.7188C63.5972 64.7609 61.4884 63.4375 59.0625 63.4375C58.5758 63.4375 58.1022 63.4944 57.645 63.595C56.7897 60.9656 54.3222 59.0625 51.4062 59.0625C48.9311 59.0625 46.7775 60.4341 45.6597 62.4575C44.8755 61.7137 43.8222 61.25 42.6562 61.25C41.4903 61.25 40.437 61.7137 39.6528 62.4575C38.535 60.4341 36.3814 59.0625 33.9062 59.0625C30.9575 59.0625 28.4648 61.0072 27.6369 63.6825C27.1983 63.5359 26.7378 63.4375 26.25 63.4375L25.6867 63.4769C24.9364 62.1469 23.5102 61.25 21.875 61.25C19.4589 61.25 17.5 63.2089 17.5 65.625C17.5 66.0034 17.5514 66.3688 17.6411 66.7188H15.4153C15.3541 66.3578 15.3125 65.9936 15.3125 65.625C15.3125 62.0058 18.2558 59.0625 21.875 59.0625C23.625 59.0625 25.2798 59.7647 26.4939 60.9634C27.2563 59.7428 28.3052 58.7475 29.5312 58.042V18.5938H14.2188V30.1656C14.9898 30.4686 15.7259 30.87 16.4062 31.3775V29.5312H18.5938V31.7188H16.8241C17.2277 32.0556 17.6159 32.4177 17.9725 32.8256C19.3309 32.8967 20.6139 33.2817 21.7744 33.9062H22.9688V34.673C25.6014 36.6373 27.3438 39.9689 27.3438 43.75C27.3438 48.5012 24.5984 52.5427 20.7812 54.0498V55.9027L14.2188 63.5578V66.7188H12.0312V62.7473L18.5938 55.0922V52.4005C22.2972 51.7902 25.1562 48.1491 25.1562 43.75C25.1562 38.9255 21.7208 35 17.5 35C17.3119 35 17.1194 35.012 16.9247 35.0306C15.5203 33.0159 13.3602 31.7188 10.9375 31.7188C6.71672 31.7188 3.28125 35.6442 3.28125 40.4688C3.28125 44.8678 6.14031 48.5089 9.84375 49.1192V39.375H12.0312V49.8509C13.2037 51.2291 14.7372 52.1216 16.4062 52.3994V54.2828L12.0312 59.3873V49.8509C11.8508 49.6387 11.6758 49.4189 11.5128 49.1848C11.3225 49.2013 11.1322 49.2188 10.9375 49.2188C10.5656 49.2188 10.2025 49.1783 9.84375 49.1192V50.5444C8.92828 49.7164 7.79406 49.2188 6.5625 49.2188C3.54703 49.2188 1.09375 52.162 1.09375 55.7812C1.09375 58.9509 2.97609 61.6011 5.46875 62.2114V66.7188H1.09375V68.9062H68.9062V66.7188H64.7325ZM18.5938 27.3438H16.4062V25.1562H18.5938V27.3438ZM18.5938 22.9688H16.4062V20.7812H18.5938V22.9688ZM22.9688 31.7188H20.7812V29.5312H22.9688V31.7188ZM22.9688 27.3438H20.7812V25.1562H22.9688V27.3438ZM22.9688 22.9688H20.7812V20.7812H22.9688V22.9688ZM25.1562 20.7812H27.3438V22.9688H25.1562V20.7812ZM25.1562 25.1562H27.3438V27.3438H25.1562V25.1562ZM25.1562 29.5312H27.3438V31.7188H25.1562V29.5312ZM25.1562 36.0938V33.9062H27.3438V36.0938H25.1562ZM7.65625 62.2114C8.46562 62.0134 9.20719 61.5945 9.84375 61.0192V66.7188H7.65625V62.2114Z" fill="#13AEA1"/>
</svg>
