<svg width="50" height="50" viewBox="0 0 50 50" fill="none" xmlns="http://www.w3.org/2000/svg">
<path d="M30.4688 16.4055H33.5938C33.8641 16.4055 34.1156 16.5461 34.2586 16.7766C34.4008 17.007 34.4141 17.2945 34.2922 17.5367L32.9969 20.1281L40.2758 16.4891C40.3844 16.4352 40.5039 16.4062 40.625 16.4062H46.0938C46.9555 16.4062 47.6562 15.7055 47.6562 14.8437V3.90625C47.6562 3.04453 46.9555 2.34375 46.0938 2.34375H30.4688C29.607 2.34375 28.9062 3.04453 28.9062 3.90625V14.8437C28.9062 15.7047 29.6063 16.4055 30.4688 16.4055ZM44.1406 10.9375C44.7867 10.9375 45.3125 11.4633 45.3125 12.1094C45.3125 12.7555 44.7867 13.2812 44.1406 13.2812C43.4945 13.2812 42.9688 12.7555 42.9688 12.1094C42.9688 11.4625 43.4937 10.9375 44.1406 10.9375ZM40.2344 10.9375C40.8805 10.9375 41.4062 11.4633 41.4062 12.1094C41.4062 12.7555 40.8805 13.2812 40.2344 13.2812C39.5883 13.2812 39.0625 12.7555 39.0625 12.1094C39.0625 11.4625 39.5875 10.9375 40.2344 10.9375ZM36.3281 10.9375C36.9742 10.9375 37.5 11.4633 37.5 12.1094C37.5 12.7555 36.9742 13.2812 36.3281 13.2812C35.682 13.2812 35.1562 12.7555 35.1562 12.1094C35.1562 11.4625 35.6813 10.9375 36.3281 10.9375ZM32.4219 10.9375C33.068 10.9375 33.5938 11.4633 33.5938 12.1094C33.5938 12.7555 33.068 13.2812 32.4219 13.2812C31.7758 13.2812 31.25 12.7555 31.25 12.1094C31.25 11.4625 31.775 10.9375 32.4219 10.9375Z" fill="#0A9386"/>
<path d="M26.5625 25C26.5625 24.5688 26.2118 24.2188 25.7813 24.2188H24.9993V25.7812H25.7813C26.2118 25.7805 26.5625 25.4305 26.5625 25Z" fill="#0A9386"/>
<path d="M40.8719 23.4773L44.0672 24.5422C43.311 22.9672 41.7047 21.875 39.8438 21.875C37.6696 21.875 35.8422 23.3648 35.3141 25.3758L40.3508 23.4875C40.5188 23.4242 40.7032 23.4203 40.8719 23.4773Z" fill="#0A9386"/>
<path d="M44.5312 26.5617C44.5312 26.4867 44.5234 26.4133 44.5203 26.3398L40.6406 25.0469L35.1882 27.0906C35.4523 29.4266 37.4382 31.2484 39.8437 31.2484C42.4281 31.2484 44.5312 29.1461 44.5312 26.5617Z" fill="#0A9386"/>
<path d="M9.96016 21.3L11.0195 19.182C11.1227 18.9742 11.3133 18.8242 11.5391 18.7711C11.7672 18.7211 12.0023 18.7679 12.1875 18.9062L13.4375 19.8437C14.5117 20.6492 15.8438 21.0937 17.1875 21.0937C18.5313 21.0937 19.8625 20.65 20.9375 19.8437L22.1867 18.9062C22.3719 18.7679 22.6102 18.7203 22.8352 18.7711C23.0609 18.8242 23.2508 18.975 23.3547 19.182L24.3477 21.1671L24.4008 21.0445C25.0047 19.6445 24.8969 18.0281 24.1117 16.7203C23.6148 15.8921 22.8875 15.2421 22.0086 14.8421L19.8281 13.8492C17.925 12.9843 15.6336 13.1609 13.8641 14.2578C15.0555 14.5875 16.1063 15.3296 16.8109 16.3867L17.0555 16.7539L15.7555 17.6211L15.5102 17.2531C14.8305 16.2328 13.6938 15.625 12.4688 15.625C11.3148 15.625 10.2297 16.2398 9.63594 17.2289C9.05156 18.2031 9.00547 19.3906 9.51328 20.4062L9.96016 21.3Z" fill="#0A9386"/>
<path d="M39.0625 32.7571V33.2688L39.8438 34.05L40.625 33.2688V32.7571C40.3687 32.7891 40.1094 32.811 39.8438 32.811C39.5789 32.811 39.3187 32.7891 39.0625 32.7571Z" fill="#0A9386"/>
<path d="M8.59375 25.7812H9.375V24.2188H8.59375C8.16328 24.2188 7.8125 24.5688 7.8125 25C7.8125 25.4297 8.16328 25.7805 8.59375 25.7812Z" fill="#0A9386"/>
<path d="M19.5305 33.2336C18.7906 33.4672 18.0039 33.5938 17.1875 33.5938C16.3711 33.5938 15.5836 33.4665 14.8438 33.2336V34.8321L17.1875 37.1758L19.5312 34.8321L19.5305 33.2336Z" fill="#0A9386"/>
<path d="M42.9688 40.625C42.9688 41.0555 43.3188 41.4047 43.75 41.4047C44.1805 41.4047 44.5305 41.0555 44.5305 40.625V39.843H42.968L42.9688 40.625Z" fill="#0A9386"/>
<path d="M30.386 39.1219L20.5305 36.0422L19.6438 36.929L20.2719 38.8141C20.3485 39.0422 20.3149 39.2938 20.1813 39.4946L18.8469 41.4961L20.2563 45.0204C20.3172 45.1727 20.329 45.3407 20.2891 45.5001L19.75 47.6547H32.0313V41.3586C32.0305 40.329 31.3696 39.4297 30.386 39.1219Z" fill="#0A9386"/>
<path d="M46.0531 35.9657L41.6172 34.4868L40.3961 35.7079C40.2438 35.8603 40.0437 35.936 39.8438 35.936C39.6438 35.936 39.4437 35.8603 39.2906 35.7079L38.0695 34.4868L33.6328 35.9657C32.675 36.2845 32.0312 37.179 32.0312 38.1899V38.2384C32.9953 38.9595 33.593 40.0985 33.593 41.3603V47.6571L47.6555 47.6563V38.1899C47.6562 37.179 47.0117 36.2845 46.0531 35.9657ZM46.093 40.6251C46.093 41.9165 45.0422 42.9673 43.75 42.9673C42.457 42.9673 41.4062 41.9165 41.4062 40.6251V39.0618C41.4062 38.6298 41.7555 38.2806 42.1875 38.2806H45.3125C45.7445 38.2806 46.0938 38.6298 46.0938 39.0618L46.093 40.6251Z" fill="#0A9386"/>
<path d="M16.9351 42.186L15.6625 45.3665L16.2344 47.6556H18.1398L18.7117 45.3665L17.4398 42.186H16.9351Z" fill="#0A9386"/>
<path d="M17.1875 39.0617C16.9875 39.0617 16.7875 38.9859 16.6343 38.8336L15.9656 38.1648L15.7054 38.9453L16.8242 40.6227H17.55L18.6687 38.9453L18.4086 38.1641L17.739 38.8336C17.5867 38.9859 17.3867 39.0617 17.1875 39.0617Z" fill="#0A9386"/>
<path d="M23.4367 25.7813V22.8399L22.3758 20.7173L21.875 21.0938C20.5312 22.1017 18.8664 22.6563 17.1875 22.6563C15.5078 22.6563 13.843 22.1017 12.5 21.0938L11.9984 20.7181L10.9375 22.8399V25.7813C10.9375 29.2274 13.7406 32.0313 17.1875 32.0313C20.6336 32.0313 23.4367 29.2274 23.4367 25.7813Z" fill="#0A9386"/>
<path d="M15.5281 41.4969L14.1937 39.4953C14.0602 39.2945 14.0266 39.043 14.1031 38.8148L14.7313 36.9305L13.8437 36.043L3.9875 39.1219C3.00469 39.4297 2.34375 40.3289 2.34375 41.3594V47.6555H14.6242L14.0859 45.5008C14.0461 45.3414 14.057 45.1734 14.1188 45.0211L15.5281 41.4969Z" fill="#0A9386"/>
</svg>
