<svg width="68" height="68" viewBox="0 0 68 68" fill="none" xmlns="http://www.w3.org/2000/svg">
<path d="M44.8438 32.8125H62.3438V29.5312H60.1562V22.9688H59.0625V17.5H56.875V22.9688H55.7812V29.5312H44.8438V32.8125Z" fill="#105EB2"/>
<path d="M37.1875 2.1875H35V7.63438L37.1875 7.19688V2.1875Z" fill="#105EB2"/>
<path d="M41.5625 0H39.375V6.75937L41.5625 6.32188V0Z" fill="#105EB2"/>
<path d="M45.9375 2.1875H43.75V5.88438L45.9375 5.44688V2.1875Z" fill="#105EB2"/>
<path d="M39.1016 58.4501C39.8759 58.134 40.7094 57.9688 41.5625 57.9688V32.8126H42.6562V27.3438H50.3125V6.80322L30.625 10.7407V56.0581C31.3272 55.8787 32.06 55.7813 32.8125 55.7813C35.2133 55.7813 37.4741 56.7679 39.1016 58.4501ZM42.6562 14.2188H47.0312V20.7813H42.6562V14.2188ZM33.9062 14.2188H38.2812V20.7813H33.9062V14.2188ZM33.9062 25.1563H38.2812V31.7188H33.9062V25.1563ZM33.9062 36.0938H38.2812V42.6563H33.9062V36.0938ZM33.9062 47.0313H38.2812V53.5938H33.9062V47.0313Z" fill="#105EB2"/>
<path d="M50.3125 55.7813C51.065 55.7813 51.7967 55.883 52.5 56.0645V39.375H48.125V56.0711C48.8316 55.8873 49.5633 55.7813 50.3125 55.7813Z" fill="#105EB2"/>
<path d="M57.8911 60.1562H57.9688C58.3395 60.1562 58.7016 60.1967 59.0625 60.2427V39.375H54.6875V56.9505C56.0055 57.7117 57.1167 58.8098 57.8911 60.1562Z" fill="#105EB2"/>
<path d="M63.4375 62.1097V35H43.75V58.3691C43.8397 58.4008 43.9348 58.415 44.0234 58.4511C44.59 57.8648 45.2375 57.3694 45.9375 56.9647V37.1875H61.25V60.8234C62.0408 61.1461 62.7747 61.577 63.4375 62.1097Z" fill="#105EB2"/>
<path d="M63.6387 65.625C62.5034 63.6672 60.3947 62.3438 57.9688 62.3438C57.482 62.3438 57.0084 62.4006 56.5512 62.5013C55.6959 59.8719 53.2284 57.9688 50.3125 57.9688C47.8373 57.9688 45.6837 59.3403 44.5659 61.3638C43.7817 60.62 42.7284 60.1562 41.5625 60.1562C40.3966 60.1562 39.3433 60.62 38.5591 61.3638C37.4413 59.3403 35.2877 57.9688 32.8125 57.9688C29.8638 57.9688 27.3711 59.9134 26.5431 62.5887C26.1045 62.4422 25.6441 62.3438 25.1562 62.3438L24.593 62.3831C23.8427 61.0531 22.4164 60.1562 20.7812 60.1562C18.3652 60.1562 16.4062 62.1152 16.4062 64.5312C16.4062 64.9097 16.4577 65.275 16.5473 65.625H14.3216C14.2603 65.2641 14.2188 64.8998 14.2188 64.5312C14.2188 60.912 17.162 57.9688 20.7812 57.9688C22.5312 57.9688 24.1861 58.6709 25.4002 59.8697C26.1625 58.6491 27.2114 57.6538 28.4375 56.9483V17.5H13.125V29.0719C13.8961 29.3748 14.6322 29.7762 15.3125 30.2837V28.4375H17.5V30.625H15.7303C16.1339 30.9619 16.5222 31.3239 16.8787 31.7319C18.2372 31.803 19.5202 32.188 20.6806 32.8125H21.875V33.5792C24.5077 35.5436 26.25 38.8752 26.25 42.6562C26.25 47.4075 23.5047 51.4489 19.6875 52.9561V54.8089L13.125 62.4641V65.625H10.9375V61.6536L17.5 53.9984V51.3067C21.2034 50.6964 24.0625 47.0553 24.0625 42.6562C24.0625 37.8317 20.627 33.9062 16.4062 33.9062C16.2181 33.9062 16.0256 33.9183 15.8309 33.9369C14.4266 31.9222 12.2664 30.625 9.84375 30.625C5.62297 30.625 2.1875 34.5505 2.1875 39.375C2.1875 43.7741 5.04656 47.4152 8.75 48.0255V38.2812H10.9375V48.7572C12.11 50.1353 13.6434 51.0278 15.3125 51.3056V53.1891L10.9375 58.2936V48.7572C10.757 48.545 10.582 48.3252 10.4191 48.0911C10.2288 48.1075 10.0384 48.125 9.84375 48.125C9.47188 48.125 9.10875 48.0845 8.75 48.0255V49.4506C7.83453 48.6227 6.70031 48.125 5.46875 48.125C2.45328 48.125 0 51.0683 0 54.6875C0 57.8572 1.88234 60.5073 4.375 61.1177V65.625H0V67.8125H67.8125V65.625H63.6387ZM17.5 26.25H15.3125V24.0625H17.5V26.25ZM17.5 21.875H15.3125V19.6875H17.5V21.875ZM21.875 30.625H19.6875V28.4375H21.875V30.625ZM21.875 26.25H19.6875V24.0625H21.875V26.25ZM21.875 21.875H19.6875V19.6875H21.875V21.875ZM24.0625 19.6875H26.25V21.875H24.0625V19.6875ZM24.0625 24.0625H26.25V26.25H24.0625V24.0625ZM24.0625 28.4375H26.25V30.625H24.0625V28.4375ZM24.0625 35V32.8125H26.25V35H24.0625ZM6.5625 61.1177C7.37187 60.9197 8.11344 60.5008 8.75 59.9255V65.625H6.5625V61.1177Z" fill="#105EB2"/>
</svg>
