<svg width="50" height="50" viewBox="0 0 50 50" fill="none" xmlns="http://www.w3.org/2000/svg">
<g clip-path="url(#clip0_2313_2225)">
<path d="M37.5 33.3984C40.0888 33.3984 42.1875 31.2998 42.1875 28.7109C42.1875 26.1221 40.0888 24.0234 37.5 24.0234C34.9112 24.0234 32.8125 26.1221 32.8125 28.7109C32.8125 31.2998 34.9112 33.3984 37.5 33.3984Z" fill="#2196F3"/>
<path d="M12.5 33.3984C15.0888 33.3984 17.1875 31.2998 17.1875 28.7109C17.1875 26.1221 15.0888 24.0234 12.5 24.0234C9.91117 24.0234 7.8125 26.1221 7.8125 28.7109C7.8125 31.2998 9.91117 33.3984 12.5 33.3984Z" fill="#2196F3"/>
<path d="M47.1715 19.7063L45.9637 19.6645C45.4562 17.6537 44.6596 15.7273 43.5989 13.9453L44.4192 13.0645C44.9401 12.5106 45.2243 11.7753 45.2113 11.0151C45.1982 10.2549 44.8889 9.52978 44.3492 8.99416L41.0032 5.64807C40.4675 5.10833 39.7424 4.79896 38.9821 4.78583C38.2218 4.7727 37.4864 5.05684 36.9324 5.57776L36.0489 6.40627C34.2688 5.34445 32.3444 4.54581 30.3356 4.03518L30.2938 2.82854C30.2705 2.06856 29.9515 1.34769 29.4046 0.8194C28.8578 0.291108 28.1264 -0.00288054 27.366 2.12792e-05H22.634C21.8737 -0.00288054 21.1423 0.291108 20.5954 0.8194C20.0486 1.34769 19.7296 2.06856 19.7063 2.82854L19.6645 4.03596C17.6538 4.54377 15.7274 5.34047 13.9453 6.40119L13.0649 5.57893C12.5109 5.05806 11.7754 4.77399 11.0152 4.7872C10.2549 4.8004 9.52975 5.10984 8.99417 5.64963L5.64807 8.99533C5.10841 9.53095 4.79913 10.2561 4.78607 11.0163C4.77301 11.7765 5.05721 12.5118 5.57815 13.0656L6.40628 13.9512C5.34456 15.7312 4.5463 17.6556 4.03636 19.6645L2.82932 19.7063C2.06924 19.7295 1.34824 20.0484 0.819798 20.5953C0.29136 21.1421 -0.00276922 21.8736 2.76638e-05 22.634V27.366C-0.00328238 28.1267 0.290566 28.8587 0.818974 29.4059C1.34738 29.9531 2.06858 30.2724 2.82893 30.2957L4.03636 30.3375C4.31951 31.4473 4.6898 32.5329 5.14378 33.5844C5.18236 33.6714 5.24143 33.7479 5.31596 33.8071C5.39049 33.8664 5.47825 33.9067 5.57175 33.9247C5.66525 33.9426 5.76171 33.9377 5.85289 33.9103C5.94407 33.8828 6.02725 33.8338 6.09534 33.7672C6.50138 33.3629 6.94243 32.9953 7.41331 32.6688C7.53829 32.5823 7.62478 32.4506 7.65451 32.3016C7.68425 32.1525 7.65491 31.9978 7.57268 31.8699C7.1129 31.1574 6.81377 30.3533 6.69609 29.5135C6.57841 28.6737 6.645 27.8184 6.89122 27.0069C7.13745 26.1955 7.55741 25.4473 8.12193 24.8145C8.68644 24.1818 9.38197 23.6795 10.1602 23.3426C10.2515 23.3026 10.331 23.24 10.3914 23.1608C10.4517 23.0815 10.4909 22.9881 10.5051 22.8895C11.0132 19.4078 12.7574 16.2254 15.419 13.924C18.0805 11.6227 21.4815 10.3562 25 10.3562C28.5186 10.3562 31.9195 11.6227 34.5811 13.924C37.2426 16.2254 38.9869 19.4078 39.4949 22.8895C39.5092 22.9881 39.5483 23.0815 39.6087 23.1608C39.669 23.24 39.7486 23.3026 39.8399 23.3426C40.6178 23.6795 41.3131 24.1817 41.8774 24.8144C42.4417 25.447 42.8615 26.1949 43.1077 27.0061C43.3539 27.8174 43.4206 28.6724 43.3031 29.512C43.1856 30.3516 42.8868 31.1555 42.4274 31.868C42.3451 31.9958 42.3158 32.1506 42.3455 32.2996C42.3753 32.4487 42.4618 32.5803 42.5867 32.6668C43.0569 32.9929 43.497 33.3602 43.902 33.7645C43.9701 33.8309 44.0532 33.8798 44.1443 33.9071C44.2354 33.9344 44.3317 33.9393 44.4251 33.9214C44.5185 33.9034 44.6062 33.8631 44.6806 33.804C44.7551 33.7448 44.8141 33.6686 44.8528 33.5817C45.3088 32.5308 45.6804 31.4454 45.9641 30.3356L47.1715 30.2938C47.9318 30.2704 48.6529 29.951 49.1812 29.4038C49.7095 28.8566 50.0033 28.1247 50 27.3641V22.634C50.0028 21.8737 49.7088 21.1423 49.1805 20.5955C48.6523 20.0487 47.9315 19.7297 47.1715 19.7063Z" fill="#2196F3"/>
<path d="M25 30.4688C28.0203 30.4688 30.4688 28.0203 30.4688 25C30.4688 21.9797 28.0203 19.5312 25 19.5312C21.9797 19.5312 19.5312 21.9797 19.5312 25C19.5312 28.0203 21.9797 30.4688 25 30.4688Z" fill="#2196F3"/>
<path d="M14.2059 34.3156C13.3385 34.581 12.4211 34.64 11.5268 34.4879C10.6326 34.3357 9.78631 33.9767 9.05547 33.4394C8.96121 33.3706 8.84853 33.3315 8.73189 33.3271C8.61524 33.3227 8.49995 33.3532 8.40078 33.4148C7.15839 34.2143 6.13335 35.309 5.41722 36.6013C4.7011 37.8935 4.31619 39.343 4.29688 40.8203V47.0703C4.28285 47.8319 4.57136 48.5679 5.09916 49.1171C5.62696 49.6663 6.35098 49.9838 7.1125 50H14.0977C14.1995 49.9984 14.2993 49.9705 14.3872 49.919C14.4751 49.8675 14.5481 49.7941 14.5993 49.706C14.6504 49.6178 14.6778 49.518 14.6789 49.4161C14.68 49.3142 14.6547 49.2138 14.6055 49.1246C14.2498 48.4983 14.0627 47.7905 14.0625 47.0703V39.2187C14.0906 37.8042 14.381 36.4071 14.9188 35.0984C14.9592 34.9959 14.97 34.884 14.9501 34.7756C14.9302 34.6672 14.8803 34.5665 14.8061 34.485C14.7319 34.4035 14.6363 34.3444 14.5302 34.3145C14.4241 34.2845 14.3117 34.2849 14.2059 34.3156Z" fill="#2196F3"/>
<path d="M41.5992 33.4148C41.5 33.3532 41.3847 33.3227 41.2681 33.3271C41.1514 33.3315 41.0388 33.3706 40.9445 33.4394C40.2137 33.9767 39.3674 34.3357 38.4731 34.4879C37.5789 34.64 36.6615 34.581 35.7941 34.3156C35.6884 34.285 35.5762 34.2846 35.4703 34.3145C35.3643 34.3443 35.2689 34.4032 35.1946 34.4845C35.1204 34.5658 35.0704 34.6662 35.0503 34.7744C35.0302 34.8827 35.0408 34.9943 35.0808 35.0969C35.6186 36.404 35.909 37.7997 35.9375 39.2129V47.0703C35.9367 47.7907 35.7489 48.4985 35.3926 49.1246C35.3433 49.2139 35.3179 49.3145 35.3191 49.4166C35.3203 49.5186 35.3479 49.6186 35.3993 49.7068C35.4506 49.795 35.524 49.8684 35.6121 49.9197C35.7003 49.9711 35.8003 49.9988 35.9023 50H42.8879C43.6493 49.9837 44.3732 49.6661 44.901 49.117C45.4287 48.5678 45.7171 47.8318 45.7031 47.0703V40.8094C45.6824 39.3339 45.2968 37.8864 44.5807 36.5962C43.8647 35.3059 42.8404 34.213 41.5992 33.4148Z" fill="#2196F3"/>
<path d="M29.414 30.3948C29.3185 30.3445 29.211 30.3215 29.1033 30.3283C28.9955 30.3352 28.8918 30.3718 28.8035 30.4339C27.6903 31.2195 26.3613 31.6413 24.9988 31.6413C23.6363 31.6413 22.3073 31.2195 21.1941 30.4339C21.1058 30.3718 21.0021 30.3352 20.8943 30.3283C20.7866 30.3215 20.6791 30.3445 20.5836 30.3948C18.9815 31.2596 17.6404 32.5377 16.6996 34.0964C15.7589 35.655 15.2529 37.4373 15.2343 39.2577V47.0702C15.2226 47.8342 15.5144 48.5717 16.0457 49.1209C16.5769 49.6701 17.3043 49.9862 18.0683 49.9999H31.9316C32.6956 49.9862 33.423 49.6701 33.9543 49.1209C34.4855 48.5717 34.7773 47.8342 34.7656 47.0702V39.2464C34.7452 37.4275 34.2381 35.6474 33.297 34.0908C32.3559 32.5342 31.0151 31.258 29.414 30.3948Z" fill="#2196F3"/>
</g>
<defs>
<clipPath id="clip0_2313_2225">
<rect width="50" height="50" fill="white"/>
</clipPath>
</defs>
</svg>
